<svg width="40" height="40" viewBox="0 0 40 40" fill="none" xmlns="http://www.w3.org/2000/svg">
<rect width="40" height="40" rx="8" fill="white"/>
<path d="M19.491 20.7512C19.4216 20.7501 19.3413 20.75 19.2422 20.75C18.828 20.75 18.4922 20.4142 18.4922 20C18.4922 19.5858 18.828 19.25 19.2422 19.25L19.2766 19.25C19.4817 19.2499 19.7035 19.2498 19.8908 19.275C20.1101 19.3045 20.3903 19.3803 20.6261 19.6161C20.8619 19.8519 20.9377 20.1321 20.9672 20.3514C20.9924 20.5387 20.9923 20.7605 20.9922 20.9656L20.9922 25C20.9922 25.4142 20.6564 25.75 20.2422 25.75C19.828 25.75 19.4922 25.4142 19.4922 25V21C19.4922 20.9009 19.4922 20.8206 19.491 20.7512Z" fill="#1F1F1E"/>
<path d="M19.9922 16C19.4399 16 18.9922 16.4477 18.9922 17C18.9922 17.5523 19.4399 18 19.9922 18H20.0012C20.5535 18 21.0012 17.5523 21.0012 17C21.0012 16.4477 20.5535 16 20.0012 16H19.9922Z" fill="#1F1F1E"/>
<path fill-rule="evenodd" clip-rule="evenodd" d="M18.362 10.015C19.4264 9.66167 20.5736 9.66167 21.638 10.015C22.6981 10.3669 23.5304 11.2014 24.3665 12.3739C25.1999 13.5426 26.1208 15.1721 27.3078 17.2725L27.3544 17.355C28.5417 19.4557 29.4625 21.0851 30.0364 22.4065C30.613 23.7343 30.9002 24.8807 30.6711 25.9821C30.4403 27.0911 29.8714 28.0995 29.0428 28.8617C28.2162 29.622 27.0907 29.9428 25.6736 30.0968C24.2645 30.25 22.4212 30.25 20.0488 30.25H19.9513C17.5788 30.25 15.7355 30.25 14.3264 30.0968C12.9093 29.9428 11.7838 29.622 10.9572 28.8617C10.1286 28.0995 9.55968 27.0911 9.32895 25.9821C9.0998 24.8807 9.387 23.7343 9.96365 22.4065C10.5375 21.0851 11.4584 19.4557 12.6456 17.355L12.6922 17.2725C13.8792 15.1721 14.8001 13.5426 15.6335 12.3739C16.4696 11.2014 17.3019 10.3669 18.362 10.015ZM21.1655 11.4386C20.4078 11.1871 19.5922 11.1871 18.8345 11.4386C18.2386 11.6365 17.6394 12.1445 16.8547 13.2449C16.0728 14.3414 15.19 15.9014 13.9747 18.0519C12.7594 20.2023 11.8782 21.7635 11.3395 23.004C10.7998 24.2467 10.6646 25.0379 10.7975 25.6766C10.9651 26.4821 11.3775 27.2102 11.9727 27.7577C12.4402 28.1877 13.1685 28.4621 14.4885 28.6056C15.807 28.7489 17.5686 28.75 20 28.75C22.4314 28.75 24.193 28.7489 25.5115 28.6056C26.8315 28.4621 27.5599 28.1877 28.0273 27.7577C28.6225 27.2102 29.0349 26.4821 29.2025 25.6766C29.3354 25.0379 29.2002 24.2467 28.6605 23.004C28.1218 21.7635 27.2406 20.2023 26.0254 18.0519C24.81 15.9014 23.9273 14.3414 23.1453 13.2449C22.3606 12.1445 21.7615 11.6365 21.1655 11.4386Z" fill="#1F1F1E"/>
</svg>
