<svg width="40" height="40" viewBox="0 0 40 40" fill="none" xmlns="http://www.w3.org/2000/svg">
<rect width="40" height="40" rx="8" fill="white"/>
<path fill-rule="evenodd" clip-rule="evenodd" d="M29.75 19.8821C29.8169 19.935 29.8818 19.9927 29.9445 20.0555C30.4 20.5109 30.5857 21.0777 30.6701 21.7055C30.7501 22.3003 30.75 23.0495 30.75 23.948V29C30.75 29.4142 30.4142 29.75 30 29.75C29.5858 29.75 29.25 29.4142 29.25 29V26.25H10.75V29C10.75 29.4142 10.4142 29.75 10 29.75C9.58579 29.75 9.25 29.4142 9.25 29L9.25 23.948C9.24997 23.0495 9.24995 22.3003 9.32991 21.7055C9.41432 21.0777 9.59999 20.5109 10.0555 20.0555C10.1182 19.9927 10.1831 19.935 10.25 19.8821L10.25 16.9506C10.25 16.2858 10.2499 15.7129 10.3116 15.2542C10.3777 14.7625 10.5268 14.2913 10.909 13.909C11.2913 13.5268 11.7625 13.3777 12.2542 13.3116C12.7129 13.2499 13.2857 13.25 13.9506 13.25L14 13.25C14.0921 13.25 14.1875 13.2558 14.2596 13.2602L14.2678 13.2607C14.3495 13.2656 14.4116 13.2692 14.4697 13.2698C14.4868 13.27 14.5017 13.2699 14.5149 13.2695C14.5276 13.2515 14.5422 13.2303 14.5593 13.2051C14.595 13.1525 14.6355 13.0908 14.6862 13.0139C15.7946 11.3294 17.9972 10.25 20 10.25C22.0029 10.25 24.2055 11.3294 25.3139 13.0139C25.3645 13.0908 25.405 13.1525 25.4407 13.2051C25.4578 13.2303 25.4724 13.2515 25.4851 13.2695C25.4983 13.2699 25.5132 13.27 25.5303 13.2698C25.5884 13.2692 25.6505 13.2656 25.7322 13.2607L25.7404 13.2602C25.8125 13.2558 25.9079 13.25 26 13.25L26.0494 13.25C26.7142 13.25 27.2871 13.2499 27.7458 13.3116C28.2375 13.3777 28.7087 13.5268 29.091 13.909C29.4732 14.2913 29.6223 14.7625 29.6884 15.2542C29.7501 15.7129 29.75 16.2858 29.75 16.9506V19.8821ZM26.052 19.25H24.75V18.6178C24.75 18.3519 24.7346 17.9924 24.5323 17.6674C24.3231 17.3315 23.9989 17.1637 23.7339 17.0507C22.6888 16.6048 21.4026 16.25 20 16.25C18.5974 16.25 17.3112 16.6048 16.2661 17.0507C16.0011 17.1637 15.6769 17.3315 15.4677 17.6674C15.2654 17.9924 15.25 18.3519 15.25 18.6178V19.25H13.948C13.0718 19.25 12.3375 19.2499 11.75 19.3241V17C11.75 16.2717 11.7516 15.8009 11.7982 15.454C11.842 15.1287 11.9126 15.0268 11.9697 14.9697C12.0268 14.9126 12.1287 14.842 12.454 14.7982C12.8009 14.7516 13.2717 14.75 14 14.75C14.0417 14.75 14.0934 14.7528 14.177 14.7579L14.1846 14.7584C14.2586 14.7629 14.3556 14.7688 14.4547 14.7697C14.6397 14.7716 14.9596 14.7616 15.2587 14.6003C15.4581 14.4928 15.5896 14.3354 15.6702 14.2302C15.7505 14.1253 15.8381 13.9921 15.9273 13.8565L15.9392 13.8384C16.7439 12.6155 18.4521 11.75 20 11.75C21.5479 11.75 23.2561 12.6155 24.0608 13.8384L24.0727 13.8565C24.1619 13.9921 24.2495 14.1253 24.3298 14.2302C24.4104 14.3354 24.5419 14.4928 24.7413 14.6003C25.0404 14.7616 25.3603 14.7716 25.5453 14.7697C25.6444 14.7688 25.7414 14.7629 25.8154 14.7584L25.823 14.7579C25.9066 14.7528 25.9583 14.75 26 14.75C26.7283 14.75 27.1991 14.7516 27.546 14.7982C27.8713 14.842 27.9732 14.9126 28.0303 14.9697C28.0874 15.0268 28.158 15.1287 28.2018 15.454C28.2484 15.8009 28.25 16.2717 28.25 17V19.3241C27.6625 19.2499 26.9282 19.25 26.052 19.25ZM16.75 19.25H23.25V18.6178C23.25 18.5545 23.2482 18.5091 23.2457 18.4768C23.2221 18.4647 23.1896 18.4492 23.1453 18.4303C22.2374 18.043 21.1531 17.75 20 17.75C18.8469 17.75 17.7626 18.043 16.8547 18.4303C16.8104 18.4492 16.7779 18.4647 16.7543 18.4768C16.7518 18.5091 16.75 18.5545 16.75 18.6178V19.25ZM29.25 24.75V24C29.25 23.036 29.2484 22.3884 29.1835 21.9054C29.1214 21.4439 29.0142 21.2464 28.8839 21.1161C28.7536 20.9858 28.5561 20.8786 28.0946 20.8165C27.6116 20.7516 26.964 20.75 26 20.75H14C13.036 20.75 12.3884 20.7516 11.9054 20.8165C11.4439 20.8786 11.2464 20.9858 11.1161 21.1161C10.9858 21.2464 10.8786 21.4439 10.8165 21.9054C10.7516 22.3884 10.75 23.036 10.75 24V24.75H29.25Z" fill="#1F1F1E"/>
</svg>
