<svg width="30" height="30" viewBox="0 0 30 30" fill="none" xmlns="http://www.w3.org/2000/svg">
<rect x="0.5" y="0.5" width="29" height="29" rx="7.5" stroke="#03578A"/>
<path fill-rule="evenodd" clip-rule="evenodd" d="M8.33332 7.83326C8.05718 7.83326 7.83332 8.05712 7.83332 8.33326C7.83332 8.60941 8.05718 8.83326 8.33332 8.83326L8.97733 8.83326C9.38792 8.83326 9.73092 9.10377 9.82461 9.46783L11.8081 17.1755C11.8695 17.4141 11.8178 17.6683 11.663 17.8687L11.1698 18.5077C11.1139 18.5026 11.0572 18.4999 11 18.4999C9.98747 18.4999 9.16666 19.3207 9.16666 20.3333C9.16666 21.3458 9.98747 22.1666 11 22.1666C11.8392 22.1666 12.5467 21.6028 12.7643 20.8333L16.569 20.8333C16.7866 21.6028 17.4941 22.1666 18.3333 22.1666C19.3458 22.1666 20.1667 21.3458 20.1667 20.3333C20.1667 19.3207 19.3458 18.4999 18.3333 18.4999C17.4941 18.4999 16.7866 19.0638 16.569 19.8333L12.7643 19.8333C12.6578 19.4568 12.4342 19.1296 12.1352 18.8936L12.4546 18.4798C12.5366 18.3736 12.6058 18.2599 12.6617 18.141L18.1883 17.6805C19.0927 17.6051 19.8208 17.4647 20.3164 16.9825C20.812 16.5004 20.9724 15.7764 21.0726 14.8744L21.4475 11.4999L21.6667 11.4999C21.9428 11.4999 22.1667 11.2761 22.1667 10.9999C22.1667 10.7238 21.9428 10.4999 21.6667 10.4999L20 10.4999C19.7238 10.4999 19.5 10.7238 19.5 10.9999C19.5 11.2761 19.7238 11.4999 20 11.4999L20.4414 11.4999L20.0787 14.764C19.9774 15.6762 19.8328 16.0579 19.6191 16.2658C19.4054 16.4737 19.0198 16.6077 18.1052 16.6839L12.8159 17.1247C12.8066 17.0583 12.7935 16.9921 12.7766 16.9263L11.3796 11.4978C11.634 11.4745 11.8333 11.2605 11.8333 10.9999C11.8333 10.7238 11.6095 10.4999 11.3333 10.4999L11.1228 10.4999L10.7931 9.21861C10.5812 8.39555 9.82631 7.83326 8.97733 7.83326L8.33332 7.83326ZM11 19.4999C10.5398 19.4999 10.1667 19.873 10.1667 20.3333C10.1667 20.7935 10.5398 21.1666 11 21.1666C11.4602 21.1666 11.8333 20.7935 11.8333 20.3333C11.8333 19.873 11.4602 19.4999 11 19.4999ZM18.3333 21.1666C17.8731 21.1666 17.5 20.7935 17.5 20.3333C17.5 19.873 17.8731 19.4999 18.3333 19.4999C18.7936 19.4999 19.1667 19.873 19.1667 20.3333C19.1667 20.7935 18.7936 21.1666 18.3333 21.1666Z" fill="#03578A"/>
<path d="M16.1667 8.6666C16.1667 8.39046 15.9428 8.1666 15.6667 8.1666C15.3905 8.1666 15.1667 8.39045 15.1667 8.6666L15.1667 10.4999L13.3333 10.4999C13.0572 10.4999 12.8333 10.7238 12.8333 10.9999C12.8333 11.2761 13.0572 11.4999 13.3333 11.4999L15.1667 11.4999L15.1667 13.3333C15.1667 13.6094 15.3905 13.8333 15.6667 13.8333C15.9428 13.8333 16.1667 13.6094 16.1667 13.3333L16.1667 11.4999L18 11.4999C18.2761 11.4999 18.5 11.2761 18.5 10.9999C18.5 10.7238 18.2761 10.4999 18 10.4999L16.1667 10.4999L16.1667 8.6666Z" fill="#03578A"/>
</svg>
