<svg width="40" height="40" viewBox="0 0 40 40" fill="none" xmlns="http://www.w3.org/2000/svg">
<rect width="40" height="40" rx="8" fill="white"/>
<path fill-rule="evenodd" clip-rule="evenodd" d="M20.0196 22.9374C19.7284 22.9374 19.4307 22.9818 19.1784 23.0796C19.0546 23.1275 18.9032 23.2031 18.7699 23.3252C18.6361 23.4479 18.4632 23.6749 18.4632 23.9999C18.4632 24.3249 18.6361 24.5519 18.7699 24.6745C18.9032 24.7967 19.0546 24.8722 19.1784 24.9202C19.4307 25.018 19.7284 25.0624 20.0196 25.0624C20.3109 25.0624 20.6085 25.018 20.8609 24.9202C20.9846 24.8722 21.136 24.7967 21.2693 24.6745C21.4032 24.5519 21.5761 24.3249 21.5761 23.9999C21.5761 23.6749 21.4032 23.4479 21.2693 23.3252C21.136 23.2031 20.9846 23.1275 20.8609 23.0796C20.6085 22.9818 20.3109 22.9374 20.0196 22.9374Z" fill="#1F1F1E"/>
<path d="M22.0365 20.6464C22.2015 20.38 22.5274 20.0625 23.0163 20.0625C23.5051 20.0625 23.831 20.38 23.996 20.6464C24.1681 20.9243 24.2501 21.2612 24.2501 21.5938C24.2501 21.9263 24.1681 22.2632 23.996 22.5411C23.831 22.8075 23.5051 23.125 23.0163 23.125C22.5274 23.125 22.2015 22.8075 22.0365 22.5411C21.8644 22.2632 21.7824 21.9263 21.7824 21.5938C21.7824 21.2612 21.8644 20.9243 22.0365 20.6464Z" fill="#1F1F1E"/>
<path d="M17.0163 20.0625C16.5275 20.0625 16.2016 20.38 16.0366 20.6464C15.8645 20.9243 15.7825 21.2612 15.7825 21.5938C15.7825 21.9263 15.8645 22.2632 16.0366 22.5411C16.2016 22.8075 16.5275 23.125 17.0163 23.125C17.5052 23.125 17.8311 22.8075 17.9961 22.5411C18.1682 22.2632 18.2502 21.9263 18.2502 21.5938C18.2502 21.2612 18.1682 20.9243 17.9961 20.6464C17.8311 20.38 17.5052 20.0625 17.0163 20.0625Z" fill="#1F1F1E"/>
<path fill-rule="evenodd" clip-rule="evenodd" d="M14.0949 12.25C13.4815 12.25 12.7746 12.4287 12.2088 12.9162C11.6223 13.4215 11.27 14.1878 11.27 15.1875V17.0625L11.27 17.0654C11.2712 17.3594 11.3211 17.9476 11.4888 18.4392C11.5437 18.6001 11.6313 18.8134 11.7776 19.0058C11.4936 19.5688 11.359 20.1495 11.2979 20.7095C11.2468 21.1771 11.2461 21.6679 11.2542 22.1211C10.5932 22.3507 9.90877 22.6349 9.5932 22.8387C9.24524 23.0634 9.14534 23.5277 9.37006 23.8756C9.59478 24.2236 10.059 24.3235 10.407 24.0988C10.5234 24.0236 10.8669 23.8664 11.3187 23.6939C11.3875 24.173 11.5272 24.6095 11.7221 25.0063C11.5662 25.1035 11.4285 25.1935 11.3189 25.2652C11.2769 25.2926 11.2391 25.3173 11.206 25.3387C10.858 25.5634 10.7581 26.0277 10.9829 26.3756C11.2076 26.7236 11.6718 26.8235 12.0198 26.5988C12.0609 26.5722 12.1047 26.5436 12.151 26.5134C12.2822 26.4278 12.4329 26.3294 12.597 26.2288C13.1865 26.8313 13.9186 27.2964 14.6792 27.6462C16.46 28.4654 18.569 28.75 20.0001 28.75C21.4311 28.75 23.5402 28.4654 25.321 27.6462C26.0815 27.2964 26.8136 26.8313 27.4031 26.2288C27.5673 26.3294 27.718 26.4278 27.8491 26.5134C27.8954 26.5436 27.9392 26.5722 27.9803 26.5988C28.3283 26.8235 28.7925 26.7236 29.0173 26.3756C29.242 26.0277 29.1421 25.5634 28.7941 25.3387C28.761 25.3173 28.7232 25.2926 28.6812 25.2652C28.5716 25.1935 28.4339 25.1035 28.2781 25.0063C28.473 24.6095 28.6127 24.173 28.6815 23.6938C29.1335 23.8663 29.4771 24.0236 29.5936 24.0988C29.9415 24.3235 30.4058 24.2236 30.6305 23.8756C30.8552 23.5277 30.7553 23.0634 30.4074 22.8387C30.0917 22.6349 29.4071 22.3506 28.7459 22.121C28.7541 21.6678 28.7534 21.177 28.7023 20.7095C28.6412 20.1495 28.5065 19.5688 28.2225 19.0058C28.3689 18.8134 28.4565 18.6001 28.5114 18.4392C28.6791 17.9476 28.729 17.3594 28.7301 17.0654L28.7302 17.0625V15.1876C28.7302 14.1879 28.3779 13.4216 27.7914 12.9163C27.2256 12.4288 26.5187 12.2501 25.9054 12.2501C25.4969 12.2501 25.0744 12.4068 24.7337 12.5608C24.3726 12.7239 23.9952 12.9359 23.6558 13.1314C23.5828 13.1734 23.5119 13.2144 23.443 13.2543L23.441 13.2555C23.177 13.4084 22.9427 13.5441 22.7339 13.6517C22.6042 13.7185 22.5035 13.7643 22.4285 13.7921C22.3969 13.8038 22.3767 13.8097 22.3663 13.8124C22.1129 13.811 21.9514 13.7903 21.7181 13.7604C21.6681 13.754 21.6147 13.7472 21.5564 13.74C21.2098 13.6974 20.7722 13.6564 20.0001 13.6564C19.228 13.6564 18.7905 13.6974 18.4438 13.74C18.3855 13.7472 18.3322 13.754 18.2821 13.7604C18.0489 13.7903 17.8874 13.811 17.6339 13.8124C17.6235 13.8097 17.6033 13.8038 17.5717 13.7921C17.4968 13.7643 17.396 13.7185 17.2663 13.6517C17.0575 13.5441 16.8233 13.4084 16.5593 13.2555C16.4898 13.2152 16.4182 13.1738 16.3445 13.1313C16.005 12.9358 15.6276 12.7238 15.2665 12.5607C14.9259 12.4067 14.5033 12.25 14.0949 12.25ZM14.1619 25.6138C14.496 25.8657 14.8808 26.0879 15.306 26.2835C16.8369 26.9877 18.7179 27.25 20.0001 27.25C21.2823 27.25 23.1632 26.9877 24.6941 26.2835C25.1194 26.0879 25.5042 25.8657 25.8382 25.6138C25.4858 25.5524 25.2179 25.245 25.2179 24.875C25.2179 24.4608 25.5537 24.125 25.9679 24.125C26.2951 24.125 26.6295 24.2068 26.9399 24.3204C27.0985 23.9885 27.1959 23.625 27.2226 23.2271C26.9249 23.1544 26.7193 23.125 26.6134 23.125C26.1992 23.125 25.8634 22.7892 25.8634 22.375C25.8634 21.9608 26.1992 21.625 26.6134 21.625C26.8081 21.625 27.0284 21.6542 27.2504 21.6974C27.2505 21.4213 27.2415 21.1502 27.2112 20.8724C27.1407 20.227 26.958 19.6541 26.5269 19.1447C26.3727 18.9625 26.1809 18.7813 25.9402 18.6045C25.6063 18.3594 25.5344 17.89 25.7796 17.5561C26.0247 17.2222 26.4941 17.1503 26.828 17.3955C26.9471 17.4829 27.0597 17.5728 27.1659 17.6651C27.2099 17.4369 27.2295 17.1982 27.2302 17.0609V15.1876C27.2302 14.5623 27.0238 14.2349 26.8123 14.0527C26.5801 13.8527 26.2496 13.7501 25.9054 13.7501C25.835 13.7501 25.659 13.7887 25.3513 13.9277C25.064 14.0575 24.7432 14.2361 24.4043 14.4313C24.3407 14.4679 24.2759 14.5054 24.2106 14.5433C23.9428 14.6984 23.666 14.8588 23.4209 14.9851C23.2663 15.0647 23.1052 15.141 22.9495 15.1987C22.8058 15.2519 22.607 15.3125 22.3941 15.3125C22.0223 15.3125 21.7617 15.2788 21.5115 15.2464C21.4654 15.2404 21.4196 15.2345 21.3735 15.2288C21.0848 15.1934 20.7084 15.1564 20.0001 15.1564C19.2919 15.1564 18.9154 15.1934 18.6267 15.2288C18.5807 15.2345 18.5349 15.2404 18.4887 15.2464C18.2386 15.2788 17.978 15.3125 17.6061 15.3125C17.3933 15.3125 17.1945 15.2519 17.0507 15.1987C16.895 15.141 16.7339 15.0647 16.5793 14.9851C16.3342 14.8588 16.0574 14.6984 15.7897 14.5432C15.7244 14.5054 15.6595 14.4678 15.5959 14.4312C15.257 14.236 14.9361 14.0574 14.6489 13.9276C14.3411 13.7886 14.1652 13.75 14.0949 13.75C13.7506 13.75 13.4201 13.8525 13.1879 14.0526C12.9764 14.2347 12.77 14.5622 12.77 15.1875V17.0609C12.7707 17.1982 12.7902 17.4369 12.8343 17.6651C12.9405 17.5728 13.0531 17.4829 13.1722 17.3955C13.5061 17.1503 13.9755 17.2222 14.2206 17.5561C14.4658 17.89 14.3938 18.3594 14.06 18.6045C13.8193 18.7813 13.6275 18.9625 13.4733 19.1447C13.0422 19.6541 12.8595 20.227 12.789 20.8724C12.7587 21.1502 12.7497 21.4213 12.7497 21.6975C12.9719 21.6543 13.1923 21.625 13.3872 21.625C13.8014 21.625 14.1372 21.9608 14.1372 22.375C14.1372 22.7892 13.8014 23.125 13.3872 23.125C13.2812 23.125 13.0755 23.1544 12.7776 23.2271C12.8043 23.625 12.9017 23.9885 13.0603 24.3203C13.3707 24.2068 13.705 24.125 14.0322 24.125C14.4465 24.125 14.7822 24.4608 14.7822 24.875C14.7822 25.245 14.5143 25.5524 14.1619 25.6138Z" fill="#1F1F1E"/>
</svg>
