<svg width="48" height="48" viewBox="0 0 48 48" fill="none" xmlns="http://www.w3.org/2000/svg">
<path d="M0 12C0 5.37258 5.37258 0 12 0H36C42.6274 0 48 5.37258 48 12V36C48 42.6274 42.6274 48 36 48H12C5.37258 48 0 42.6274 0 36V12Z" fill="white" fill-opacity="0.24"/>
<path d="M12 0.5H36C42.3513 0.5 47.5 5.64873 47.5 12V36C47.5 42.3513 42.3513 47.5 36 47.5H12C5.64873 47.5 0.5 42.3513 0.5 36V12C0.5 5.64873 5.64873 0.5 12 0.5Z" stroke="white" stroke-opacity="0.5"/>
<path d="M28.0074 21.2097C28.5597 21.2097 29.0074 20.762 29.0074 20.2097C29.0074 19.6574 28.5597 19.2097 28.0074 19.2097H27.9985C27.4462 19.2097 26.9985 19.6574 26.9985 20.2097C26.9985 20.762 27.4462 21.2097 27.9985 21.2097H28.0074Z" fill="#FFAA00"/>
<path d="M30.0074 27.2097C30.0074 27.762 29.5597 28.2097 29.0074 28.2097H28.9985C28.4462 28.2097 27.9985 27.762 27.9985 27.2097C27.9985 26.6574 28.4462 26.2097 28.9985 26.2097H29.0074C29.5597 26.2097 30.0074 26.6574 30.0074 27.2097Z" fill="#FFAA00"/>
<path fill-rule="evenodd" clip-rule="evenodd" d="M20.4996 25.9597C21.7423 25.9597 22.7496 26.9671 22.7496 28.2097C22.7496 29.4524 21.7423 30.4597 20.4996 30.4597C19.257 30.4597 18.2496 29.4524 18.2496 28.2097C18.2496 26.9671 19.257 25.9597 20.4996 25.9597ZM21.2496 28.2097C21.2496 27.7955 20.9138 27.4597 20.4996 27.4597C20.0854 27.4597 19.7496 27.7955 19.7496 28.2097C19.7496 28.6239 20.0854 28.9597 20.4996 28.9597C20.9138 28.9597 21.2496 28.6239 21.2496 28.2097Z" fill="#FFAA00"/>
<path fill-rule="evenodd" clip-rule="evenodd" d="M24.9144 15.2504C26.0133 14.6015 27.383 13.8203 29.1089 14.533C31.3602 15.4626 33.1845 17.1819 34.2015 19.3399C34.5642 20.1095 34.7612 20.8144 34.7491 21.4524C34.7468 21.5698 34.7375 21.6841 34.7212 21.795C34.7397 21.8602 34.7496 21.9291 34.7496 22.0002V25.7617C34.7497 27.0604 34.7497 28.1049 34.647 28.9331C34.5406 29.7908 34.3145 30.516 33.7897 31.1189C33.3191 31.6595 32.7254 31.9671 32.0146 32.1683C31.3257 32.3632 30.4748 32.4716 29.4528 32.5819C28.8027 32.6521 28.3192 32.2222 28.1151 31.7952C27.9025 31.3503 27.4736 31.0666 26.9996 31.0666C26.4405 31.0666 25.9396 31.4653 25.7921 32.0504C25.6768 32.5077 25.2926 33.0153 24.6523 33.0819L20.6145 33.5017C19.1242 33.6566 17.924 33.7814 16.9758 33.7432C15.9902 33.7036 15.1505 33.4854 14.4727 32.8478C13.7998 32.2148 13.5137 31.3816 13.3796 30.3812C13.2496 29.4103 13.2496 28.1616 13.2496 26.5994L13.2496 23.3305C13.2495 23.3196 13.2495 23.3088 13.2496 23.2981L13.2496 23.0398C13.2496 22.7736 13.3883 22.5398 13.5973 22.4067L13.6004 22.4024C13.8103 22.112 14.1098 21.8047 14.4449 21.5028C15.1219 20.8929 16.0489 20.2118 17.0021 19.5995C17.955 18.9875 18.9656 18.4241 19.8158 18.0614C20.2371 17.8817 20.6508 17.7374 21.0146 17.6699C21.1965 17.6362 21.3952 17.6159 21.5917 17.6336C21.7847 17.651 22.0355 17.7108 22.2533 17.8928C22.4732 18.0767 22.7539 18.1862 23.0617 18.1862C23.7582 18.1862 24.3284 17.6182 24.3284 16.9106C24.3284 16.869 24.3235 16.8197 24.3125 16.7105C24.3035 16.6198 24.2891 16.4767 24.2946 16.3282C24.3002 16.1753 24.3271 15.9749 24.4273 15.7703C24.5329 15.5547 24.6986 15.3778 24.9144 15.2504ZM25.7969 16.4717C25.7988 16.4956 25.8014 16.5246 25.805 16.5603L25.8075 16.5851C25.8158 16.6657 25.8284 16.7894 25.8284 16.9106C25.8284 18.4405 24.5928 19.6862 23.0617 19.6862C22.438 19.6862 21.8614 19.4784 21.3988 19.1291C21.3718 19.1314 21.3354 19.136 21.2883 19.1448C21.0803 19.1834 20.7819 19.2801 20.4044 19.4411C19.6572 19.7599 18.7234 20.2767 17.8127 20.8616C16.9024 21.4464 16.0465 22.0788 15.4489 22.6173C15.2151 22.828 15.036 23.0107 14.9114 23.1594C15.0363 23.1864 15.207 23.2105 15.4363 23.2267C16.1936 23.2803 17.3137 23.2346 18.898 23.1683L30.4372 22.6851C31.0949 22.6575 31.6538 22.5895 32.1017 22.4723C32.5547 22.3537 32.8396 22.1988 33.0061 22.037C33.1514 21.8958 33.2438 21.7156 33.2493 21.4239C33.2554 21.1044 33.155 20.6378 32.8447 19.9794C31.9912 18.1683 30.4515 16.7102 28.5364 15.9194C27.5992 15.5325 26.8643 15.8486 25.7969 16.4717ZM32.4816 23.9234C32.7465 23.854 33.0059 23.7658 33.2496 23.6522V25.7115C33.2496 27.0721 33.2483 28.0234 33.1584 28.7486C33.0708 29.455 32.9091 29.8459 32.6583 30.134C32.4357 30.3898 32.133 30.5759 31.6062 30.725C31.0824 30.8732 30.3953 30.9695 29.4322 31.0753C28.9771 30.1895 28.0672 29.5666 26.9996 29.5666C25.7299 29.5666 24.6872 30.4441 24.3589 31.6043L20.5191 32.0035C18.955 32.1661 17.8631 32.2777 17.0362 32.2444C16.234 32.2122 15.8097 32.0461 15.5005 31.7553C15.1864 31.4597 14.9791 31.0236 14.8664 30.182C14.7512 29.3224 14.7496 28.1745 14.7496 26.5431V24.6557C14.9356 24.688 15.1309 24.7089 15.3304 24.723C16.183 24.7833 17.3886 24.7328 18.9046 24.6693L30.4999 24.1838C31.213 24.1539 31.8896 24.0784 32.4816 23.9234Z" fill="#FFAA00"/>
</svg>
