<svg width="24" height="24" viewBox="0 0 24 24" fill="none" xmlns="http://www.w3.org/2000/svg">
<path fill-rule="evenodd" clip-rule="evenodd" d="M17.752 11.7433V13.6107C17.9304 13.6709 18.1045 13.734 18.2741 13.8C18.6601 13.95 18.8511 14.385 18.7011 14.771C18.5861 15.068 18.3021 15.249 18.0021 15.249C17.9121 15.249 17.8201 15.233 17.7301 15.198C16.1571 14.586 14.1231 14.249 12.0021 14.249C9.88111 14.249 7.84711 14.586 6.27411 15.198C5.88811 15.348 5.45311 15.157 5.30311 14.771C5.15311 14.385 5.34412 13.95 5.73012 13.8C5.89959 13.734 6.07366 13.671 6.25195 13.6108V11.7436C4.00188 11.565 2.25 9.67416 2.25 7.404C2.25 5.108 4.201 3.05103 6.6 3.05103C7.175 3.05103 7.737 3.163 8.259 3.379C9.032 2.078 10.447 1.25 12 1.25C13.553 1.25 14.967 2.079 15.741 3.379C16.263 3.163 16.825 3.05103 17.4 3.05103C19.799 3.05103 21.75 5.004 21.75 7.404C21.75 9.77561 20.0001 11.5653 17.752 11.7433ZM16.252 9.99902V13.1959C14.9397 12.9041 13.4863 12.749 12.0021 12.749C10.5178 12.749 9.06428 12.9041 7.75195 13.196V9.99902C7.75195 9.58502 7.41595 9.24902 7.00195 9.24902C6.58795 9.24902 6.25195 9.58502 6.25195 9.99902V10.2362C4.8361 10.0688 3.75 8.92476 3.75 7.404C3.75 5.831 5.029 4.55103 6.6 4.55103C7.163 4.55103 7.706 4.71502 8.171 5.02402L8.197 5.04102C8.553 5.28202 8.85401 5.60603 9.06901 5.97803C9.27701 6.33603 9.73501 6.459 10.094 6.252C10.452 6.044 10.575 5.586 10.368 5.227C10.144 4.839 9.859 4.48501 9.527 4.18301C10.028 3.30901 10.968 2.74902 12.001 2.74902C13.205 2.74902 14.282 3.51002 14.686 4.64302L14.6878 4.64857C14.6902 4.65602 14.6928 4.66386 14.696 4.67105C14.799 4.96904 14.851 5.282 14.851 5.602C14.851 5.846 14.821 6.08504 14.762 6.31504C14.659 6.71604 14.9 7.12503 15.301 7.22803C15.703 7.33203 16.112 7.09001 16.215 6.68901C16.306 6.33701 16.352 5.972 16.352 5.602C16.352 5.325 16.326 5.05103 16.275 4.78203C16.628 4.62903 17.01 4.55 17.402 4.55C18.973 4.55 20.252 5.83003 20.252 7.40303C20.252 8.84966 19.1669 10.0619 17.752 10.2348V9.99902C17.752 9.58502 17.416 9.24902 17.002 9.24902C16.588 9.24902 16.252 9.58502 16.252 9.99902Z" fill="white"/>
<path d="M6.25195 16.999C6.25195 20.17 8.83095 22.749 12.002 22.749C15.173 22.749 17.752 20.17 17.752 16.999C17.752 16.585 17.416 16.249 17.002 16.249C16.588 16.249 16.252 16.585 16.252 16.999C16.252 19.342 14.345 21.249 12.002 21.249C9.65895 21.249 7.75195 19.342 7.75195 16.999C7.75195 16.585 7.41595 16.249 7.00195 16.249C6.58795 16.249 6.25195 16.585 6.25195 16.999Z" fill="white"/>
</svg>
