<svg width="30" height="30" viewBox="0 0 30 30" fill="none" xmlns="http://www.w3.org/2000/svg">
<path d="M16.6665 2.6665H18.3332C18.8855 2.6665 19.3332 2.21879 19.3332 1.6665C19.3332 1.11422 18.8855 0.666504 18.3332 0.666504H12.9998C12.4476 0.666504 11.9998 1.11422 11.9998 1.6665C11.9998 2.21879 12.4476 2.6665 12.9998 2.6665H14.6665V3.43887C12.4058 3.72752 10.3175 4.59501 8.56249 5.88849C8.51547 5.79378 8.45251 5.70497 8.37361 5.62606L7.04028 4.29273C6.64975 3.90221 6.01659 3.90221 5.62606 4.29273C5.23554 4.68325 5.23554 5.31642 5.62606 5.70694L6.9594 7.04028C7.0005 7.08138 7.0443 7.11816 7.09022 7.15061C5.04693 9.18121 3.67203 11.8794 3.33923 14.89C3.27854 15.4389 3.67435 15.9331 4.2233 15.9938C4.77224 16.0545 5.26643 15.6587 5.32712 15.1097C5.93415 9.61842 10.6642 5.33317 16.3332 5.33317C22.4083 5.33317 27.3332 10.258 27.3332 16.3332C27.3332 22.4083 22.4083 27.3332 16.3332 27.3332H1.6665C1.11422 27.3332 0.666504 27.7809 0.666504 28.3332C0.666504 28.8855 1.11422 29.3332 1.6665 29.3332H16.3332C23.5129 29.3332 29.3332 23.5129 29.3332 16.3332C29.3332 12.4246 27.6082 8.91889 24.8781 6.53578L25.7069 5.70694C26.0975 5.31642 26.0975 4.68325 25.7069 4.29273C25.3164 3.90221 24.6833 3.90221 24.2927 4.29273L23.257 5.32843C21.3401 4.11983 19.0854 3.39824 16.6665 3.33736V2.6665Z" fill="#226993"/>
<path fill-rule="evenodd" clip-rule="evenodd" d="M21.7071 11.707C22.0976 11.3165 22.0976 10.6833 21.7071 10.2928C21.3166 9.90225 20.6834 9.90225 20.2929 10.2928L16.9599 13.6258C16.5682 13.4384 16.1294 13.3332 15.6667 13.3332C14.0098 13.3332 12.6667 14.6764 12.6667 16.3332C12.6667 17.9901 14.0098 19.3332 15.6667 19.3332C17.3235 19.3332 18.6667 17.9901 18.6667 16.3332C18.6667 15.8704 18.5615 15.4316 18.3741 15.04L21.7071 11.707ZM14.6667 16.3332C14.6667 15.7809 15.1144 15.3332 15.6667 15.3332C15.9431 15.3332 16.1917 15.444 16.3738 15.6261C16.5558 15.8082 16.6667 16.0568 16.6667 16.3332C16.6667 16.8855 16.219 17.3332 15.6667 17.3332C15.1144 17.3332 14.6667 16.8855 14.6667 16.3332Z" fill="#226993"/>
<path d="M0.666504 18.9998C0.666504 18.4476 1.11422 17.9998 1.6665 17.9998H5.6665C6.21879 17.9998 6.6665 18.4476 6.6665 18.9998C6.6665 19.5521 6.21879 19.9998 5.6665 19.9998H1.6665C1.11422 19.9998 0.666504 19.5521 0.666504 18.9998Z" fill="#226993"/>
<path d="M1.6665 23.3332C1.11422 23.3332 0.666504 23.7809 0.666504 24.3332C0.666504 24.8855 1.11422 25.3332 1.6665 25.3332H8.33317C8.88546 25.3332 9.33317 24.8855 9.33317 24.3332C9.33317 23.7809 8.88546 23.3332 8.33317 23.3332H1.6665Z" fill="#226993"/>
</svg>
