<svg width="30" height="28" viewBox="0 0 30 28" fill="none" xmlns="http://www.w3.org/2000/svg">
<path d="M7.33664 10.4163C7.29104 9.86594 7.70027 9.38279 8.25067 9.33719C8.81349 9.2901 9.15715 9.32739 9.50142 9.36474L9.51176 9.36586C10.1699 9.43725 11.1336 9.63267 11.883 10.2278C12.4042 10.6417 12.7993 11.1466 13.0736 11.5627C13.4463 12.1279 13.3976 12.7948 13.0561 13.2837C12.7342 13.7445 12.1965 14.0002 11.6351 14.0002C10.5922 14.0002 9.5763 13.0292 9.9565 11.8231L10.0564 11.5062C9.8267 11.4338 9.56678 11.3836 9.2961 11.3542C9.04295 11.3267 8.57908 11.3291 8.41533 11.3304C7.86512 11.3757 7.38222 10.9666 7.33664 10.4163Z" fill="#226993"/>
<path d="M22.6625 10.4377C22.7122 9.88764 22.306 9.40144 21.756 9.35177C21.2481 9.30592 20.842 9.33651 20.4938 9.37225C19.835 9.43987 18.8685 9.63079 18.1168 10.2278C17.5956 10.6417 17.2005 11.1466 16.9262 11.5627C16.5535 12.1279 16.6022 12.7948 16.9437 13.2837C17.2656 13.7445 17.8033 14.0002 18.3647 14.0002C19.4076 14.0002 20.4235 13.0292 20.0433 11.8231L19.944 11.5082C20.1716 11.4378 20.4292 11.3894 20.698 11.3618C20.9506 11.3359 21.414 11.3413 21.5775 11.3438C22.1272 11.3929 22.6129 10.9874 22.6625 10.4377Z" fill="#226993"/>
<path d="M11.6006 18.8672C11.159 18.5355 10.5321 18.6245 10.2004 19.0661C9.86866 19.5076 9.95768 20.1345 10.3992 20.4662C11.6806 21.429 13.275 21.9998 14.9999 21.9998C16.7248 21.9998 18.3192 21.429 19.6006 20.4662C20.0421 20.1345 20.1311 19.5076 19.7994 19.0661C19.4677 18.6245 18.8408 18.5355 18.3992 18.8672C17.4523 19.5787 16.2767 19.9998 14.9999 19.9998C13.7231 19.9998 12.5475 19.5787 11.6006 18.8672Z" fill="#226993"/>
<path fill-rule="evenodd" clip-rule="evenodd" d="M29.0403 0.292921C29.3057 0.558281 29.4001 0.94988 29.2849 1.30704L27.0375 8.27381C26.9556 8.5277 26.9085 8.67514 26.8797 8.78787C26.8649 8.84617 26.8599 8.87707 26.8583 8.89029C26.8612 8.905 26.8703 8.94504 26.8959 9.02317C26.9406 9.16009 27.0103 9.34057 27.1231 9.63101C27.6896 11.0906 27.9999 12.6769 27.9999 14.3334C27.9999 21.5131 22.1796 27.3334 14.9999 27.3334C7.82016 27.3334 1.99986 21.5131 1.99986 14.3334C1.99986 12.6769 2.31015 11.0906 2.87667 9.63101C2.9894 9.34057 3.05908 9.16009 3.10386 9.02317C3.12942 8.94504 3.13849 8.90501 3.14144 8.89029C3.13984 8.87708 3.13486 8.84617 3.11998 8.78788C3.09121 8.67515 3.04411 8.5277 2.96221 8.27381L0.714824 1.30704C0.59961 0.94988 0.694061 0.558281 0.959424 0.292921C1.22479 0.0275576 1.61638 -0.0668943 1.97354 0.0483198L9.5951 2.50693C11.2421 1.75313 13.0732 1.33336 14.9999 1.33336C16.9266 1.33336 18.7577 1.75313 20.4046 2.50693L28.0262 0.0483198C28.3833 -0.0668943 28.7749 0.0275576 29.0403 0.292921ZM22.7092 3.865C22.8662 3.98082 23.0205 4.10007 23.172 4.22266C23.6014 4.57007 23.6678 5.19974 23.3203 5.62907C22.9729 6.0584 22.3433 6.12481 21.9139 5.77739C21.2909 5.27326 20.612 4.83596 19.8882 4.47623C18.4167 3.745 16.7578 3.33336 14.9999 3.33336C13.2419 3.33336 11.583 3.745 10.1116 4.47623C9.38771 4.83596 8.70881 5.27326 8.0858 5.77739C7.65647 6.12481 7.0268 6.0584 6.67938 5.62907C6.33197 5.19974 6.39838 4.57007 6.82771 4.22266C6.9792 4.10007 7.13351 3.98082 7.29053 3.865L3.21764 2.55114L4.86563 7.6598L4.89738 7.75767C5.02152 8.13911 5.15315 8.54362 5.14126 8.95222C5.13378 9.20921 5.07067 9.44342 5.00477 9.6449C4.94107 9.83967 4.85116 10.0713 4.75014 10.3315L4.74116 10.3547C4.26277 11.5872 3.99986 12.9284 3.99986 14.3334C3.99986 20.4085 8.92473 25.3334 14.9999 25.3334C21.075 25.3334 25.9999 20.4085 25.9999 14.3334C25.9999 12.9284 25.737 11.5872 25.2586 10.3547L25.2496 10.3316C25.1486 10.0713 25.0587 9.83968 24.995 9.6449C24.9291 9.44342 24.8659 9.20921 24.8585 8.95222C24.8466 8.54361 24.9782 8.1391 25.1023 7.75765L25.1341 7.65979L26.7821 2.55114L22.7092 3.865Z" fill="#226993"/>
</svg>
