<svg width="48" height="48" viewBox="0 0 48 48" fill="none" xmlns="http://www.w3.org/2000/svg">
<g filter="url(#filter0_i_11_456)">
<rect width="48" height="48" rx="12" fill="#03578A"/>
<path fill-rule="evenodd" clip-rule="evenodd" d="M20.9747 15.25H21.0253C21.4697 15.25 21.8408 15.25 22.1454 15.2708C22.4625 15.2924 22.762 15.339 23.0524 15.4593C23.7262 15.7384 24.2616 16.2738 24.5407 16.9476C24.661 17.238 24.7076 17.5375 24.7292 17.8546C24.75 18.1592 24.75 18.5303 24.75 18.9747V19.0253C24.75 19.4697 24.75 19.8408 24.7292 20.1454C24.7076 20.4625 24.661 20.762 24.5407 21.0524C24.2616 21.7262 23.7262 22.2616 23.0524 22.5407C22.762 22.661 22.4625 22.7076 22.1454 22.7292C21.8408 22.75 21.4697 22.75 21.0253 22.75H20.9747C20.5303 22.75 20.1592 22.75 19.8546 22.7292C19.5375 22.7076 19.238 22.661 18.9476 22.5407C18.2738 22.2616 17.7384 21.7262 17.4593 21.0524C17.339 20.762 17.2924 20.4625 17.2708 20.1454C17.2625 20.0242 17.2575 19.8926 17.2545 19.75H15C14.5858 19.75 14.25 19.4142 14.25 19C14.25 18.5858 14.5858 18.25 15 18.25H17.2545C17.2575 18.1074 17.2625 17.9758 17.2708 17.8546C17.2924 17.5375 17.339 17.238 17.4593 16.9476C17.7384 16.2738 18.2738 15.7384 18.9476 15.4593C19.238 15.339 19.5375 15.2924 19.8546 15.2708C20.1592 15.25 20.5303 15.25 20.9747 15.25ZM19.9567 16.7673C19.716 16.7837 19.5988 16.8132 19.5216 16.8452C19.2154 16.972 18.972 17.2154 18.8452 17.5216C18.8132 17.5988 18.7837 17.716 18.7673 17.9567C18.7504 18.2042 18.75 18.5238 18.75 19C18.75 19.4762 18.7504 19.7958 18.7673 20.0433C18.7837 20.284 18.8132 20.4012 18.8452 20.4784C18.972 20.7846 19.2154 21.028 19.5216 21.1549C19.5988 21.1868 19.716 21.2163 19.9567 21.2327C20.2042 21.2496 20.5238 21.25 21 21.25C21.4762 21.25 21.7958 21.2496 22.0433 21.2327C22.284 21.2163 22.4012 21.1868 22.4784 21.1549C22.7846 21.028 23.028 20.7846 23.1549 20.4784C23.1868 20.4012 23.2163 20.284 23.2327 20.0433C23.2496 19.7958 23.25 19.4762 23.25 19C23.25 18.5238 23.2496 18.2042 23.2327 17.9567C23.2163 17.716 23.1868 17.5988 23.1549 17.5216C23.028 17.2154 22.7846 16.972 22.4784 16.8452C22.4012 16.8132 22.284 16.7837 22.0433 16.7673C21.7958 16.7504 21.4762 16.75 21 16.75C20.5238 16.75 20.2042 16.7504 19.9567 16.7673Z" fill="white"/>
<path d="M15 28.25C14.5858 28.25 14.25 28.5858 14.25 29C14.25 29.4142 14.5858 29.75 15 29.75H21C21.4142 29.75 21.75 29.4142 21.75 29C21.75 28.5858 21.4142 28.25 21 28.25H15Z" fill="white"/>
<path fill-rule="evenodd" clip-rule="evenodd" d="M30.7455 28.25C30.7425 28.1074 30.7375 27.9758 30.7292 27.8546C30.7076 27.5375 30.661 27.238 30.5407 26.9476C30.2616 26.2738 29.7262 25.7384 29.0524 25.4593C28.762 25.339 28.4625 25.2924 28.1454 25.2708C27.8408 25.25 27.4698 25.25 27.0253 25.25H26.9747C26.5303 25.25 26.1592 25.25 25.8546 25.2708C25.5375 25.2924 25.238 25.339 24.9476 25.4593C24.2738 25.7384 23.7384 26.2738 23.4593 26.9476C23.339 27.238 23.2924 27.5375 23.2708 27.8546C23.25 28.1592 23.25 28.5302 23.25 28.9747V29.0253C23.25 29.4697 23.25 29.8408 23.2708 30.1454C23.2924 30.4625 23.339 30.762 23.4593 31.0524C23.7384 31.7262 24.2738 32.2616 24.9476 32.5407C25.238 32.661 25.5375 32.7076 25.8546 32.7292C26.1592 32.75 26.5302 32.75 26.9747 32.75H27.0253C27.4697 32.75 27.8408 32.75 28.1454 32.7292C28.4625 32.7076 28.762 32.661 29.0524 32.5407C29.7262 32.2616 30.2616 31.7262 30.5407 31.0524C30.661 30.762 30.7076 30.4625 30.7292 30.1454C30.7375 30.0242 30.7425 29.8926 30.7455 29.75H33C33.4142 29.75 33.75 29.4142 33.75 29C33.75 28.5858 33.4142 28.25 33 28.25H30.7455ZM29.25 29C29.25 28.5238 29.2496 28.2042 29.2327 27.9567C29.2163 27.716 29.1868 27.5988 29.1549 27.5216C29.028 27.2154 28.7846 26.972 28.4784 26.8452C28.4012 26.8132 28.284 26.7837 28.0433 26.7673C27.7958 26.7504 27.4762 26.75 27 26.75C26.5238 26.75 26.2042 26.7504 25.9567 26.7673C25.716 26.7837 25.5988 26.8132 25.5216 26.8452C25.2154 26.972 24.972 27.2154 24.8452 27.5216C24.8132 27.5988 24.7837 27.716 24.7673 27.9567C24.7504 28.2042 24.75 28.5238 24.75 29C24.75 29.4762 24.7504 29.7958 24.7673 30.0433C24.7837 30.284 24.8132 30.4012 24.8452 30.4784C24.972 30.7846 25.2154 31.028 25.5216 31.1549C25.5988 31.1868 25.716 31.2163 25.9567 31.2327C26.2042 31.2496 26.5238 31.25 27 31.25C27.4762 31.25 27.7958 31.2496 28.0433 31.2327C28.284 31.2163 28.4012 31.1868 28.4784 31.1549C28.7846 31.028 29.028 30.7846 29.1549 30.4784C29.1868 30.4012 29.2163 30.284 29.2327 30.0433C29.2496 29.7958 29.25 29.4762 29.25 29Z" fill="white"/>
<path d="M27 18.25C26.5858 18.25 26.25 18.5858 26.25 19C26.25 19.4142 26.5858 19.75 27 19.75L33 19.75C33.4142 19.75 33.75 19.4142 33.75 19C33.75 18.5858 33.4142 18.25 33 18.25L27 18.25Z" fill="white"/>
</g>
<defs>
<filter id="filter0_i_11_456" x="0" y="0" width="50" height="52" filterUnits="userSpaceOnUse" color-interpolation-filters="sRGB">
<feFlood flood-opacity="0" result="BackgroundImageFix"/>
<feBlend mode="normal" in="SourceGraphic" in2="BackgroundImageFix" result="shape"/>
<feColorMatrix in="SourceAlpha" type="matrix" values="0 0 0 0 0 0 0 0 0 0 0 0 0 0 0 0 0 0 127 0" result="hardAlpha"/>
<feOffset dx="2" dy="4"/>
<feGaussianBlur stdDeviation="6"/>
<feComposite in2="hardAlpha" operator="arithmetic" k2="-1" k3="1"/>
<feColorMatrix type="matrix" values="0 0 0 0 0.0509804 0 0 0 0 0.0235294 0 0 0 0 0.0313726 0 0 0 0.12 0"/>
<feBlend mode="normal" in2="shape" result="effect1_innerShadow_11_456"/>
</filter>
</defs>
</svg>
