<svg width="40" height="40" viewBox="0 0 40 40" fill="none" xmlns="http://www.w3.org/2000/svg">
<rect width="40" height="40" rx="8" fill="white"/>
<path d="M15 14C15 13.4477 15.4477 13 16 13H16.009C16.5613 13 17.009 13.4477 17.009 14C17.009 14.5523 16.5613 15 16.009 15H16C15.4477 15 15 14.5523 15 14Z" fill="#1F1F1E"/>
<path d="M15.25 25C15.25 25.4142 15.5858 25.75 16 25.75C16.4142 25.75 16.75 25.4142 16.75 25V22C16.75 21.5858 16.4142 21.25 16 21.25C15.5858 21.25 15.25 21.5858 15.25 22L15.25 25Z" fill="#1F1F1E"/>
<path fill-rule="evenodd" clip-rule="evenodd" d="M20.0564 9.25H19.9436C18.1058 9.24998 16.6502 9.24997 15.511 9.40314C14.3386 9.56076 13.3896 9.89288 12.6412 10.6412C11.8929 11.3896 11.5608 12.3386 11.4031 13.511C11.25 14.6502 11.25 16.1058 11.25 17.9436V22.0564C11.25 23.8942 11.25 25.3498 11.4031 26.489C11.5608 27.6614 11.8929 28.6104 12.6412 29.3588C13.3896 30.1071 14.3386 30.4392 15.511 30.5969C16.6502 30.75 18.1058 30.75 19.9435 30.75H20.0564C21.8942 30.75 23.3498 30.75 24.489 30.5969C25.6614 30.4392 26.6104 30.1071 27.3588 29.3588C28.1071 28.6104 28.4392 27.6614 28.5969 26.489C28.75 25.3498 28.75 23.8942 28.75 22.0565V17.9436C28.75 16.1059 28.75 14.6502 28.5969 13.511C28.4392 12.3386 28.1071 11.3896 27.3588 10.6412C26.6104 9.89288 25.6614 9.56076 24.489 9.40314C23.3498 9.24997 21.8942 9.24998 20.0564 9.25ZM27.2496 17.25C27.247 15.7297 27.2296 14.5983 27.1102 13.7109C26.975 12.7048 26.7213 12.1251 26.2981 11.7019C25.8749 11.2787 25.2952 11.025 24.2892 10.8898C23.2615 10.7516 21.9068 10.75 20 10.75C18.0932 10.75 16.7385 10.7516 15.7109 10.8898C14.7048 11.025 14.1251 11.2787 13.7019 11.7019C13.2787 12.1251 13.025 12.7048 12.8898 13.7108C12.7704 14.5983 12.753 15.7297 12.7504 17.25H27.2496ZM12.75 18.75H27.25V22C27.25 23.9068 27.2484 25.2615 27.1102 26.2892C26.975 27.2952 26.7213 27.8749 26.2981 28.2981C25.8749 28.7213 25.2952 28.975 24.2892 29.1102C23.2615 29.2484 21.9068 29.25 20 29.25C18.0932 29.25 16.7385 29.2484 15.7108 29.1102C14.7048 28.975 14.1251 28.7213 13.7019 28.2981C13.2787 27.8749 13.025 27.2952 12.8898 26.2892C12.7516 25.2615 12.75 23.9068 12.75 22L12.75 18.75Z" fill="#1F1F1E"/>
</svg>
