<svg width="40" height="40" viewBox="0 0 40 40" fill="none" xmlns="http://www.w3.org/2000/svg">
<rect width="40" height="40" rx="8" fill="white"/>
<path d="M18.0078 16C18.0078 16.5523 17.5601 17 17.0078 17H16.9988C16.4465 17 15.9988 16.5523 15.9988 16C15.9988 15.4477 16.4465 15 16.9988 15H17.0078C17.5601 15 18.0078 15.4477 18.0078 16Z" fill="#1F1F1E"/>
<path d="M23.5303 15.5303C23.8232 15.2374 23.8232 14.7626 23.5303 14.4697C23.2374 14.1768 22.7626 14.1768 22.4697 14.4697L21.4697 15.4697C21.1768 15.7626 21.1768 16.2374 21.4697 16.5303C21.7626 16.8232 22.2374 16.8232 22.5303 16.5303L23.5303 15.5303Z" fill="#1F1F1E"/>
<path fill-rule="evenodd" clip-rule="evenodd" d="M29.1539 18.5031C29.2419 18.2457 29.2646 17.9828 29.2419 17.7108C29.212 17.3526 29.0986 16.953 28.9836 16.5479L28.9688 16.4958C28.1296 13.5359 25.7782 11.25 22.8542 11.25H17.1461C14.2221 11.25 11.8707 13.5359 11.0315 16.4958L11.0168 16.548C10.9018 16.9531 10.7884 17.3526 10.7585 17.7108C10.7358 17.9828 10.7584 18.2456 10.8464 18.5029C9.90389 18.9391 9.25 19.8932 9.25 21C9.25 22.0831 9.87611 23.0199 10.7861 23.4683C10.7448 23.6423 10.7428 23.8097 10.7608 23.9634C10.7964 24.2677 10.926 24.5931 11.0347 24.8661L11.0559 24.9193C11.9589 27.1944 14.3822 28.75 17.1459 28.75H22.8541C25.6178 28.75 28.0411 27.1944 28.9442 24.9193L28.9653 24.8661C29.0741 24.5931 29.2037 24.2676 29.2392 23.9634C29.2572 23.8097 29.2552 23.6423 29.2139 23.4683C30.1239 23.0199 30.75 22.0831 30.75 21C30.75 19.8933 30.0963 18.9393 29.1539 18.5031ZM17.1461 12.75C15.0788 12.75 13.1871 14.3921 12.4747 16.905C12.3392 17.383 12.2696 17.6401 12.2533 17.8356C12.2417 17.9746 12.2607 18.0298 12.312 18.1056L12.3143 18.109C12.3386 18.1451 12.3591 18.1755 12.508 18.2048C12.7206 18.2467 13.0256 18.25 13.5785 18.25H26.4218C26.9748 18.25 27.2798 18.2467 27.4923 18.2048C27.6412 18.1755 27.6618 18.1451 27.6861 18.109L27.6884 18.1056C27.7396 18.0298 27.7587 17.9746 27.7471 17.8356C27.7308 17.6401 27.6612 17.383 27.5257 16.905C26.8133 14.3921 24.9215 12.75 22.8542 12.75H17.1461ZM20.345 19.75L19.056 21.2538C18.7307 21.6334 18.4367 21.9765 18.1625 22.2177C17.8636 22.4807 17.4896 22.7134 17 22.7134C16.5104 22.7134 16.1364 22.4807 15.8375 22.2177C15.5633 21.9765 15.2693 21.6334 14.944 21.2538L13.655 19.75H12C11.3096 19.75 10.75 20.3096 10.75 21C10.75 21.6904 11.3096 22.25 12 22.25H13C13.0182 22.25 13.0363 22.2507 13.0543 22.2519C13.2068 22.25 13.3661 22.25 13.5306 22.25L14 22.25C14.4142 22.25 14.75 22.5858 14.75 23C14.75 23.4142 14.4142 23.75 14 23.75H13.5783C13.0339 23.75 12.7044 23.7517 12.4675 23.785C12.3583 23.8004 12.3006 23.8188 12.2711 23.8315C12.2668 23.8334 12.263 23.8352 12.2596 23.8369C12.2669 23.8678 12.2794 23.9118 12.3003 23.9733C12.336 24.0779 12.3842 24.1999 12.45 24.3659C13.0986 25.9998 14.9184 27.25 17.1459 27.25H22.8541C25.0816 27.25 26.9014 25.9998 27.55 24.3659C27.6159 24.1999 27.6641 24.0779 27.6997 23.9733C27.7206 23.9118 27.7331 23.8678 27.7404 23.8369C27.7371 23.8352 27.7333 23.8334 27.7289 23.8315C27.6995 23.8188 27.6417 23.8004 27.5326 23.785C27.2956 23.7517 26.9661 23.75 26.4217 23.75H22C21.5858 23.75 21.25 23.4142 21.25 23C21.25 22.5858 21.5858 22.25 22 22.25L26.4692 22.25C26.6337 22.25 26.7932 22.25 26.9457 22.2519C26.9637 22.2507 26.9818 22.25 27 22.25H28C28.6904 22.25 29.25 21.6904 29.25 21C29.25 20.3096 28.6904 19.75 28 19.75H20.345ZM15.6307 19.75L16.0509 20.2403C16.4186 20.6693 16.6436 20.929 16.8284 21.0916C16.9139 21.1668 16.9644 21.1968 16.9886 21.2082C16.9941 21.2108 16.9978 21.2123 17 21.213L17.0041 21.2115L17.0114 21.2082C17.0356 21.1968 17.0861 21.1668 17.1716 21.0916C17.3564 20.929 17.5814 20.6693 17.9491 20.2403L18.3693 19.75H15.6307Z" fill="#1F1F1E"/>
</svg>
