<svg width="40" height="41" viewBox="0 0 40 41" fill="none" xmlns="http://www.w3.org/2000/svg">
<rect y="1" width="40" height="40" rx="20" fill="white"/>
<path fill-rule="evenodd" clip-rule="evenodd" d="M27.0705 13.6333C24.6882 12.172 22.6813 12.769 21.4848 13.6676C21.2897 13.8141 21.107 13.9715 20.9544 14.1116L23.1361 17.6023C23.3348 17.9202 23.2682 18.336 22.9802 18.576L20.6112 20.5502L22.0304 21.9695C22.2738 22.2128 22.3203 22.5906 22.1432 22.8857L20.6432 25.3857C20.4301 25.7409 19.9694 25.8561 19.6142 25.6429C19.259 25.4298 19.1439 24.9691 19.357 24.614L20.5557 22.6161L18.9698 21.0302C18.8208 20.8812 18.7413 20.6763 18.7509 20.4658C18.7604 20.2553 18.8581 20.0586 19.02 19.9237L21.5173 17.8425L19.3641 14.3973C19.1854 14.1114 19.2195 13.7413 19.4474 13.4928L20.0001 13.9998C19.4474 13.4928 19.4474 13.4928 19.4474 13.4928L19.4504 13.4896L19.4559 13.4836L19.4749 13.4634C19.4909 13.4464 19.5135 13.4225 19.5422 13.393C19.5995 13.3339 19.6813 13.2515 19.782 13.1549C19.9818 12.9633 20.2639 12.7085 20.5841 12.4681C22.1996 11.2549 24.8738 10.5261 27.8548 12.3547C29.9161 13.619 31.0759 16.2601 30.6689 19.2946C30.26 22.3438 28.2864 25.7924 24.1068 28.886C24.0718 28.9119 24.0371 28.9376 24.0027 28.963C22.5514 30.038 21.5902 30.7498 20.0001 30.7498C18.41 30.7498 17.4488 30.038 15.9975 28.963C15.9631 28.9376 15.9284 28.9119 15.8934 28.886C11.7138 25.7924 9.74024 22.3438 9.3313 19.2946C8.92431 16.2601 10.0841 13.619 12.1454 12.3547C14.2323 11.0745 16.1904 11.04 17.7457 11.5791C18.1371 11.7147 18.3444 12.142 18.2087 12.5333C18.0731 12.9247 17.6458 13.132 17.2545 12.9963C16.1205 12.6033 14.6309 12.5898 12.9297 13.6333C11.4716 14.5277 10.4735 16.527 10.818 19.0952C11.1605 21.6489 12.8476 24.7654 16.7858 27.6803C18.368 28.8514 18.9455 29.2498 20.0001 29.2498C21.0547 29.2498 21.6322 28.8514 23.2144 27.6803C27.1526 24.7654 28.8397 21.6489 29.1822 19.0952C29.5267 16.527 28.5286 14.5277 27.0705 13.6333Z" fill="#FFBF1A"/>
<path d="M36.8088 6.85791C36.8088 5.38515 35.6148 4.19124 34.1421 4.19124C32.6693 4.19124 31.4754 5.38515 31.4754 6.85791C31.4754 8.33067 32.6693 9.52458 34.1421 9.52458C35.6148 9.52458 36.8088 8.33067 36.8088 6.85791ZM20 0.500046C19.7238 0.500046 19.5 0.723903 19.5 1.00005C19.5 1.27619 19.7238 1.50005 20 1.50005V1.00005V0.500046ZM34.1421 6.85791L34.4956 6.50436C30.6511 2.65986 25.4369 0.500047 20 0.500046V1.00005V1.50005C25.1717 1.50005 30.1316 3.5545 33.7885 7.21146L34.1421 6.85791Z" fill="#FFBF1A"/>
</svg>
