<svg width="42" height="42" viewBox="0 0 42 42" fill="none" xmlns="http://www.w3.org/2000/svg">
<rect x="1" y="1" width="40" height="40" rx="20" fill="white"/>
<path d="M16.4003 25.5496C17.448 24.1547 19.1184 23.25 21 23.25C22.8816 23.25 24.552 24.1547 25.5997 25.5496C25.8484 25.8808 25.7816 26.3509 25.4504 26.5997C25.1192 26.8484 24.6491 26.7816 24.4003 26.4504C23.6237 25.4164 22.3898 24.75 21 24.75C19.6102 24.75 18.3763 25.4164 17.5997 26.4504C17.3509 26.7816 16.8808 26.8484 16.5496 26.5997C16.2184 26.3509 16.1516 25.8808 16.4003 25.5496Z" fill="#F46983"/>
<path d="M17 17C16.4477 17 16 17.4477 16 18C16 18.5523 16.4477 19 17 19H17.009C17.5613 19 18.009 18.5523 18.009 18C18.009 17.4477 17.5613 17 17.009 17H17Z" fill="#F46983"/>
<path d="M24.991 17C24.4387 17 23.991 17.4477 23.991 18C23.991 18.5523 24.4387 19 24.991 19H25C25.5523 19 26 18.5523 26 18C26 17.4477 25.5523 17 25 17H24.991Z" fill="#F46983"/>
<path fill-rule="evenodd" clip-rule="evenodd" d="M10.25 21C10.25 15.0629 15.0629 10.25 21 10.25C26.9371 10.25 31.75 15.0629 31.75 21C31.75 26.9371 26.9371 31.75 21 31.75C15.0629 31.75 10.25 26.9371 10.25 21ZM21 11.75C15.8914 11.75 11.75 15.8914 11.75 21C11.75 26.1086 15.8914 30.25 21 30.25C26.1086 30.25 30.25 26.1086 30.25 21C30.25 15.8914 26.1086 11.75 21 11.75Z" fill="#F46983"/>
<path d="M13.907 3.5429C13.907 2.07014 12.7131 0.876228 11.2403 0.876228C9.76756 0.876228 8.57365 2.07014 8.57365 3.5429C8.57365 5.01566 9.76756 6.20956 11.2403 6.20956C12.7131 6.20956 13.907 5.01566 13.907 3.5429ZM25.9807 40.3699L26.1052 40.8541L25.9807 40.3699ZM40.8497 18.5533L40.3535 18.6145L40.8497 18.5533ZM34.2968 6.0603L34.6292 5.6868L34.2968 6.0603ZM21.1313 0.500397C20.8552 0.498627 20.6299 0.721046 20.6281 0.997181C20.6263 1.27332 20.8488 1.49861 21.1249 1.50037L21.1281 1.00039L21.1313 0.500397ZM11.2403 3.5429L10.9963 3.10647C6.6495 5.53662 3.33592 9.466 1.67448 14.1607L2.14583 14.3275L2.61718 14.4943C4.19759 10.0286 7.34952 6.29094 11.4843 3.97932L11.2403 3.5429ZM2.14583 14.3275L1.67448 14.1607C0.0130272 18.8554 0.117321 23.9943 1.96789 28.6177L2.43208 28.4319L2.89628 28.2461C1.13598 23.8483 1.03678 18.96 2.61718 14.4943L2.14583 14.3275ZM2.43208 28.4319L1.96789 28.6177C3.81845 33.2412 7.28873 37.0328 11.7306 39.2846L11.9567 38.8387L12.1827 38.3927C7.95757 36.2508 4.65657 32.644 2.89628 28.2461L2.43208 28.4319ZM11.9567 38.8387L11.7306 39.2846C16.1724 41.5364 21.2821 42.0943 26.1052 40.8541L25.9807 40.3699L25.8561 39.8856C21.2683 41.0653 16.4079 40.5346 12.1827 38.3927L11.9567 38.8387ZM25.9807 40.3699L26.1052 40.8541C30.9283 39.6139 35.135 36.6604 37.9397 32.5453L37.5266 32.2637L37.1134 31.9821C34.4455 35.8965 30.444 38.7059 25.8561 39.8856L25.9807 40.3699ZM37.5266 32.2637L37.9397 32.5453C40.7444 28.4302 41.9552 23.4348 41.346 18.4922L40.8497 18.5533L40.3535 18.6145C40.933 23.316 39.7812 28.0677 37.1134 31.9821L37.5266 32.2637ZM40.8497 18.5533L41.346 18.4922C40.7368 13.5496 38.3492 8.99773 34.6292 5.6868L34.2968 6.0603L33.9644 6.43379C37.5029 9.5832 39.774 13.913 40.3535 18.6145L40.8497 18.5533ZM34.2968 6.0603L34.6292 5.6868C30.9092 2.37588 26.1112 0.532303 21.1313 0.500397L21.1281 1.00039L21.1249 1.50037C25.8619 1.53072 30.4258 3.28437 33.9644 6.43379L34.2968 6.0603Z" fill="#F46983"/>
</svg>
