<svg width="41" height="42" viewBox="0 0 41 42" fill="none" xmlns="http://www.w3.org/2000/svg">
<rect y="1" width="40" height="40" rx="20" fill="white"/>
<path d="M14.2526 19.0623C14.2184 18.6495 14.5253 18.2871 14.9381 18.2529C15.3602 18.2176 15.618 18.2455 15.8762 18.2736L15.8839 18.2744C16.3776 18.3279 17.1004 18.4745 17.6624 18.9208C18.0532 19.2313 18.3496 19.61 18.5553 19.922C18.8349 20.3459 18.7983 20.8461 18.5422 21.2128C18.3008 21.5584 17.8975 21.7502 17.4764 21.7502C16.6942 21.7502 15.9323 21.0219 16.2175 20.1173L16.2924 19.8796C16.1201 19.8253 15.9252 19.7877 15.7222 19.7656C15.5323 19.7451 15.1844 19.7468 15.0616 19.7478C14.649 19.7818 14.2868 19.4749 14.2526 19.0623Z" fill="#03578A"/>
<path d="M25.747 19.0783C25.7843 18.6657 25.4796 18.3011 25.0671 18.2638C24.6862 18.2294 24.3816 18.2524 24.1204 18.2792C23.6263 18.3299 22.9015 18.4731 22.3377 18.9208C21.9468 19.2313 21.6505 19.61 21.4447 19.922C21.1652 20.3459 21.2017 20.8461 21.4579 21.2128C21.6993 21.5584 22.1026 21.7502 22.5236 21.7502C23.3058 21.7502 24.0677 21.0219 23.7826 20.1173L23.7081 19.8811C23.8789 19.8283 24.072 19.792 24.2736 19.7713C24.4631 19.7519 24.8106 19.756 24.9333 19.7578C25.3455 19.7947 25.7098 19.4906 25.747 19.0783Z" fill="#03578A"/>
<path d="M17.4505 25.4004C17.1194 25.1516 16.6492 25.2184 16.4004 25.5495C16.1516 25.8807 16.2184 26.3509 16.5495 26.5997C17.5106 27.3217 18.7064 27.7499 20 27.7499C21.2937 27.7499 22.4895 27.3217 23.4505 26.5997C23.7817 26.3509 23.8485 25.8807 23.5997 25.5495C23.3509 25.2184 22.8807 25.1516 22.5495 25.4004C21.8393 25.934 20.9577 26.2499 20 26.2499C19.0424 26.2499 18.1607 25.934 17.4505 25.4004Z" fill="#03578A"/>
<path fill-rule="evenodd" clip-rule="evenodd" d="M30.5304 11.4697C30.7294 11.6687 30.8002 11.9624 30.7138 12.2303L29.0283 17.4554C28.9668 17.6458 28.9315 17.7564 28.9099 17.8409C28.8988 17.8846 28.895 17.9078 28.8938 17.9177C28.896 17.9288 28.9029 17.9588 28.922 18.0174C28.9556 18.1201 29.0079 18.2554 29.0924 18.4733C29.5173 19.568 29.75 20.7577 29.75 22C29.75 27.3848 25.3848 31.75 20 31.75C14.6152 31.75 10.25 27.3848 10.25 22C10.25 20.7577 10.4827 19.568 10.9076 18.4733C10.9922 18.2554 11.0444 18.1201 11.078 18.0174C11.0972 17.9588 11.104 17.9288 11.1062 17.9177C11.105 17.9078 11.1013 17.8846 11.0901 17.8409C11.0685 17.7564 11.0332 17.6458 10.9718 17.4554L9.28624 12.2303C9.19983 11.9624 9.27067 11.6687 9.46969 11.4697C9.66871 11.2707 9.96241 11.1998 10.2303 11.2862L15.9464 13.1302C17.1817 12.5648 18.555 12.25 20 12.25C21.445 12.25 22.8184 12.5648 24.0536 13.1302L29.7698 11.2862C30.0376 11.1998 30.3313 11.2707 30.5304 11.4697ZM25.782 14.1487C25.8998 14.2356 26.0155 14.3251 26.1291 14.417C26.4511 14.6776 26.5009 15.1498 26.2404 15.4718C25.9798 15.7938 25.5076 15.8436 25.1856 15.583C24.7183 15.2049 24.2091 14.877 23.6662 14.6072C22.5627 14.0587 21.3185 13.75 20 13.75C18.6816 13.75 17.4374 14.0587 16.3338 14.6072C15.7909 14.877 15.2817 15.2049 14.8145 15.583C14.4925 15.8436 14.0202 15.7938 13.7597 15.4718C13.4991 15.1498 13.5489 14.6776 13.8709 14.417C13.9845 14.3251 14.1003 14.2356 14.218 14.1487L11.1634 13.1634L12.3993 16.9948L12.4232 17.0682C12.5163 17.3543 12.615 17.6577 12.6061 17.9642C12.6005 18.1569 12.5531 18.3326 12.5037 18.4837C12.4559 18.6298 12.3885 18.8035 12.3127 18.9987L12.306 19.016C11.9472 19.9404 11.75 20.9463 11.75 22C11.75 26.5564 15.4437 30.25 20 30.25C24.5564 30.25 28.25 26.5564 28.25 22C28.25 20.9463 28.0528 19.9404 27.694 19.016L27.6873 18.9987C27.6116 18.8035 27.5441 18.6298 27.4963 18.4837C27.4469 18.3326 27.3996 18.1569 27.394 17.9642C27.3851 17.6577 27.4838 17.3543 27.5769 17.0682L27.6007 16.9948L28.8367 13.1634L25.782 14.1487Z" fill="#03578A"/>
<path d="M10.897 37.1702C10.897 35.6974 9.70309 34.5035 8.23034 34.5035C6.75758 34.5035 5.56367 35.6974 5.56367 37.1702C5.56367 38.6429 6.75758 39.8369 8.23034 39.8369C9.70309 39.8369 10.897 38.6429 10.897 37.1702ZM16.8636 40.7525L16.942 40.2587L16.8636 40.7525ZM34.1499 35.1344L34.5037 35.4877L34.1499 35.1344ZM39.0274 27.1609L38.5517 27.0069L39.0274 27.1609ZM19.9405 0.500084C19.6643 0.500885 19.4411 0.725391 19.4419 1.00153C19.4427 1.27768 19.6672 1.50088 19.9434 1.50008L19.9419 1.00008L19.9405 0.500084ZM8.23034 37.1702L7.93609 37.5744C10.5544 39.4802 13.5868 40.7385 16.7852 41.2464L16.8636 40.7525L16.942 40.2587C13.8997 39.7756 11.0151 38.5787 8.52458 36.7659L8.23034 37.1702ZM16.8636 40.7525L16.7852 41.2464C19.9835 41.7542 23.2566 41.4971 26.3364 40.4962L26.1818 40.0206L26.0273 39.5451C23.0977 40.4973 19.9843 40.7418 16.942 40.2587L16.8636 40.7525ZM26.1818 40.0206L26.3364 40.4962C29.4162 39.4952 32.215 37.7788 34.5037 35.4877L34.1499 35.1344L33.7962 34.781C31.6192 36.9604 28.9569 38.593 26.0273 39.5451L26.1818 40.0206ZM34.1499 35.1344L34.5037 35.4877C36.7923 33.1966 38.5055 30.3958 39.5031 27.3149L39.0274 27.1609L38.5517 27.0069C37.6028 29.9375 35.9731 32.6016 33.7962 34.781L34.1499 35.1344ZM39.0274 27.1609L39.5031 27.3149C40.5007 24.234 40.7542 20.9606 40.2428 17.7629L39.7491 17.8418L39.2553 17.9208C39.7418 20.9626 39.5006 24.0763 38.5517 27.0069L39.0274 27.1609ZM39.7491 17.8418L40.2428 17.7629C39.7314 14.5651 38.4698 11.534 36.5612 8.91787L36.1572 9.21256L35.7533 9.50724C37.5688 11.9958 38.7689 14.879 39.2553 17.9208L39.7491 17.8418ZM36.1572 9.21256L36.5612 8.91787C34.6526 6.30171 32.1513 4.17493 29.2623 2.71177L29.0364 3.15782L28.8105 3.60387C31.5586 4.99567 33.9378 7.0187 35.7533 9.50724L36.1572 9.21256ZM29.0364 3.15782L29.2623 2.71177C26.3733 1.2486 23.1788 0.490673 19.9405 0.500084L19.9419 1.00008L19.9434 1.50008C23.0238 1.49113 26.0624 2.21209 28.8105 3.60387L29.0364 3.15782Z" fill="#03578A"/>
</svg>
