<svg width="43" height="41" viewBox="0 0 43 41" fill="none" xmlns="http://www.w3.org/2000/svg">
<rect y="1" width="40" height="40" rx="20" fill="white"/>
<path fill-rule="evenodd" clip-rule="evenodd" d="M23.4995 15.75C22.2585 15.75 21.2495 14.741 21.2495 13.5C21.2495 12.259 22.2585 11.25 23.4995 11.25C24.7405 11.25 25.7495 12.259 25.7495 13.5C25.7495 14.741 24.7405 15.75 23.4995 15.75ZM23.4995 12.75C23.0855 12.75 22.7495 13.086 22.7495 13.5C22.7495 13.914 23.0855 14.25 23.4995 14.25C23.9135 14.25 24.2495 13.914 24.2495 13.5C24.2495 13.086 23.9135 12.75 23.4995 12.75Z" fill="#57AB0F"/>
<path fill-rule="evenodd" clip-rule="evenodd" d="M22.9972 30.75C22.6622 30.75 22.3572 30.524 22.2712 30.184L21.6071 27.564C21.4211 26.835 21.0352 26.167 20.4932 25.635L19.0012 24.164C17.9412 23.333 17.3552 22.868 17.0862 22.139C16.9662 21.808 16.9102 21.467 16.9182 21.122C16.9362 20.351 17.3352 19.733 18.0612 18.61L18.5541 17.849C16.3221 18.155 15.3532 19.135 14.6662 20.489C14.4792 20.858 14.0272 21.006 13.6582 20.818C13.2892 20.63 13.1412 20.179 13.3292 19.81C14.5742 17.356 16.5631 16.291 19.9791 16.25H20.8692C21.4409 16.25 21.7863 16.25 22.1342 16.406C22.1432 16.41 22.1521 16.414 22.1621 16.419C22.5061 16.59 22.7642 16.891 23.2272 17.453C23.3012 17.541 23.3852 17.626 23.4602 17.687C24.7032 18.604 26.0422 18.273 27.4402 16.701C27.7152 16.392 28.1891 16.364 28.4991 16.639C28.8091 16.914 28.8362 17.388 28.5612 17.698C26.3572 20.176 24.3822 19.86 23.2302 19.295L20.4652 23.498L21.5482 24.566C22.2842 25.289 22.8082 26.199 23.0632 27.194L23.7272 29.816C23.8292 30.218 23.5862 30.626 23.1842 30.727C23.1222 30.743 23.0601 30.75 22.9991 30.75H22.9972ZM20.4062 17.75L19.3212 19.4265C18.7448 20.3186 18.4272 20.8102 18.4192 21.158C18.4152 21.316 18.4412 21.473 18.4962 21.625C18.5822 21.858 18.8392 22.109 19.3222 22.504L22.0392 18.374C21.8532 18.149 21.6062 17.851 21.5022 17.771C21.4102 17.751 21.1352 17.751 20.8682 17.751L20.4062 17.75Z" fill="#57AB0F"/>
<path d="M12.5046 27.6198C12.8766 27.7078 13.2487 27.7498 13.6157 27.7498L13.6146 27.7507C15.3026 27.7507 16.8756 26.8518 17.6636 25.3488C17.8556 24.9818 17.7147 24.5278 17.3477 24.3358C16.9807 24.1438 16.5267 24.2847 16.3347 24.6517C15.7037 25.8547 14.2386 26.4887 12.8496 26.1597L12.1717 25.9998C11.7687 25.9038 11.3647 26.1548 11.2697 26.5578C11.1747 26.9608 11.4246 27.3647 11.8276 27.4597L12.5046 27.6198Z" fill="#57AB0F"/>
<path d="M42.3503 17.4561C42.3503 15.9833 41.1564 14.7894 39.6836 14.7894C38.2108 14.7894 37.0169 15.9833 37.0169 17.4561C37.0169 18.9288 38.2108 20.1227 39.6836 20.1227C41.1564 20.1227 42.3503 18.9288 42.3503 17.4561ZM32.9361 5.74693L33.2595 5.3656L32.9361 5.74693ZM20.2893 0.502211C20.0132 0.498316 19.7862 0.718994 19.7823 0.995108C19.7784 1.27122 19.9991 1.49822 20.2752 1.50211L20.2822 1.00216L20.2893 0.502211ZM39.6836 17.4561L40.1757 17.3675C39.3327 12.6855 36.8876 8.44255 33.2595 5.3656L32.9361 5.74693L32.6127 6.12827C36.0638 9.05512 38.3896 13.0911 39.1915 17.5447L39.6836 17.4561ZM32.9361 5.74693L33.2595 5.3656C29.6313 2.28866 25.046 0.569313 20.2893 0.502211L20.2822 1.00216L20.2752 1.50211C24.7999 1.56594 29.1615 3.20141 32.6127 6.12827L32.9361 5.74693Z" fill="#57AB0F"/>
</svg>
