<svg width="938" height="372" viewBox="0 0 938 372" fill="none" xmlns="http://www.w3.org/2000/svg">
<g clip-path="url(#clip0_4_2)">
<path d="M471.146 167.009L369.095 371.113L507.886 162.926L381.34 15.97L471.146 167.009Z" fill="#2E555A"/>
<path d="M491.557 199.664L516.05 167.009L618.103 281.309H544.625L491.557 199.664Z" fill="#EB1D25"/>
<path d="M491.557 134.351L560.957 3.72202H618.108L516.05 154.761L491.557 134.351Z" fill="#969896"/>
<path d="M279.288 281.307L320.108 191.501H356.846L373.176 232.321L393.588 191.501H426.246L385.421 281.307H352.766L365.011 256.814L344.601 215.994L316.026 281.307H279.288Z" fill="#969896"/>
<path d="M250.714 93.53C271.124 56.792 237.729 19.511 213.025 9.122C141.4 -21 53.335 25.92 16.324 113.925C-20.687 201.93 7.369 297.684 78.988 327.811C150.607 357.938 238.677 311.011 275.688 223.011C279.718 213.446 283.042 203.597 285.632 193.546H241.656C241.034 195.141 240.387 196.734 239.716 198.325C208.616 272.263 140.452 314.135 87.458 291.846C34.464 269.557 16.716 191.548 47.813 117.61C78.91 43.672 147.081 1.8 200.074 24.085C226.709 35.285 244.439 60.564 251.541 92.33L250.714 93.53Z" fill="#969896"/>
<path d="M289.493 142.516C289.493 149.782 287.339 156.886 283.302 162.928C279.265 168.969 273.527 173.679 266.814 176.459C260.1 179.24 252.713 179.968 245.586 178.55C238.46 177.132 231.913 173.633 226.775 168.495C221.637 163.357 218.138 156.81 216.721 149.684C215.303 142.557 216.031 135.17 218.812 128.456C221.593 121.743 226.302 116.005 232.344 111.969C238.386 107.932 245.49 105.778 252.756 105.778C262.499 105.779 271.843 109.649 278.733 116.539C285.622 123.429 289.493 132.773 289.493 142.516Z" fill="#EB1D25"/>
<path d="M678.215 176.634V212.134H719.975V228.316H678.215V265.378H725.195V281.556H658.379V160.456H725.195V176.638L678.215 176.634Z" fill="#969896"/>
<path d="M808.193 281.556L780.353 233.184H765.215V281.556H745.379V160.626H787.139C796.419 160.626 804.278 162.25 810.716 165.498C816.706 168.338 821.728 172.876 825.158 178.548C828.373 184.094 830.027 190.408 829.943 196.818C829.999 204.53 827.591 212.059 823.07 218.307C818.488 224.745 811.441 229.124 801.929 231.444L831.857 281.556H808.193ZM765.215 217.35H787.139C794.563 217.35 800.16 215.494 803.93 211.782C807.7 208.07 809.585 203.082 809.585 196.818C809.585 190.551 807.729 185.651 804.017 182.118C800.305 178.585 794.679 176.815 787.139 176.808H765.215V217.35Z" fill="#EB1D25"/>
<path d="M936.943 196.644C936.962 202.715 935.467 208.696 932.593 214.044C929.693 219.496 925.053 223.933 918.673 227.355C912.293 230.777 904.115 232.488 894.139 232.488H872.215V281.556H852.379V160.626H894.139C903.419 160.626 911.278 162.221 917.716 165.411C923.711 168.201 928.739 172.714 932.158 178.374C935.373 183.92 937.027 190.234 936.943 196.644ZM894.139 216.306C901.679 216.306 907.305 214.595 911.017 211.173C914.729 207.751 916.585 202.908 916.585 196.644C916.585 183.42 909.103 176.808 894.139 176.808H872.215V216.308L894.139 216.306Z" fill="#2E555A"/>
<path d="M569.479 323.296C574.055 323.194 578.589 324.185 582.705 326.186C586.39 328.018 589.444 330.908 591.477 334.486C593.603 338.343 594.67 342.693 594.571 347.096C594.68 351.469 593.611 355.79 591.477 359.608C589.429 363.131 586.374 365.961 582.705 367.734C578.576 369.691 574.047 370.657 569.479 370.556H554.043V323.296H569.479ZM569.479 364.232C575.012 364.232 579.251 362.736 582.195 359.744C585.139 356.752 586.612 352.536 586.615 347.096C586.615 341.611 585.142 337.327 582.195 334.244C579.248 331.161 575.01 329.62 569.479 329.62H561.795V364.232H569.479ZM606.199 328.124C605.543 328.14 604.891 328.022 604.283 327.776C603.675 327.531 603.124 327.163 602.663 326.696C602.195 326.235 601.828 325.683 601.582 325.074C601.336 324.465 601.218 323.812 601.235 323.156C601.219 322.5 601.337 321.848 601.583 321.24C601.828 320.632 602.196 320.081 602.663 319.62C603.124 319.153 603.675 318.785 604.283 318.54C604.891 318.294 605.543 318.176 606.199 318.192C606.844 318.181 607.484 318.301 608.081 318.547C608.677 318.793 609.217 319.158 609.667 319.62C610.134 320.081 610.502 320.632 610.747 321.24C610.993 321.848 611.111 322.5 611.095 323.156C611.111 323.812 610.993 324.464 610.747 325.072C610.502 325.68 610.134 326.231 609.667 326.692C609.217 327.155 608.678 327.521 608.081 327.767C607.485 328.014 606.844 328.135 606.199 328.124ZM610.007 333.088V370.556H602.255V333.088H610.007ZM633.807 371.168C631.082 371.213 628.379 370.667 625.885 369.568C623.695 368.617 621.787 367.119 620.343 365.218C619.003 363.439 618.243 361.29 618.167 359.064H626.191C626.26 359.852 626.5 360.616 626.893 361.303C627.287 361.99 627.824 362.583 628.469 363.042C629.972 364.146 631.805 364.71 633.669 364.642C635.446 364.747 637.213 364.308 638.735 363.384C639.285 363.043 639.739 362.568 640.054 362.003C640.369 361.437 640.535 360.801 640.535 360.154C640.551 359.492 640.369 358.84 640.011 358.283C639.654 357.725 639.137 357.288 638.529 357.026C636.481 356.089 634.353 355.338 632.171 354.782C629.84 354.17 627.546 353.42 625.303 352.538C623.529 351.809 621.956 350.666 620.713 349.206C619.362 347.539 618.672 345.433 618.775 343.29C618.765 341.323 619.385 339.404 620.543 337.814C621.838 336.068 623.592 334.715 625.609 333.904C628.011 332.912 630.592 332.426 633.191 332.476C637.452 332.476 640.886 333.553 643.491 335.706C644.785 336.782 645.83 338.128 646.552 339.648C647.274 341.169 647.657 342.829 647.673 344.512H639.927C639.888 343.737 639.686 342.98 639.334 342.289C638.983 341.597 638.49 340.988 637.887 340.5C636.458 339.436 634.702 338.905 632.923 339C631.278 338.896 629.64 339.3 628.231 340.156C627.722 340.486 627.305 340.94 627.02 341.475C626.734 342.01 626.589 342.609 626.599 343.216C626.59 343.689 626.683 344.158 626.87 344.592C627.058 345.026 627.337 345.415 627.687 345.732C628.454 346.438 629.356 346.983 630.339 347.332C631.382 347.717 632.923 348.205 634.963 348.794C637.245 349.373 639.484 350.111 641.663 351.004C643.401 351.747 644.947 352.875 646.185 354.304C647.517 355.93 648.217 357.983 648.157 360.084C648.184 362.127 647.564 364.126 646.387 365.796C645.116 367.547 643.386 368.912 641.387 369.74C638.988 370.74 636.406 371.226 633.807 371.168ZM665.563 339.412V360.156C665.51 360.701 665.571 361.251 665.74 361.772C665.91 362.292 666.185 362.773 666.549 363.182C667.52 363.891 668.718 364.217 669.915 364.1H674.675V370.556H668.555C665.064 370.556 662.39 369.74 660.531 368.108C658.672 366.476 657.743 363.825 657.743 360.156V339.416H653.323V333.092H657.743V323.776H665.563V333.092H674.675V339.416L665.563 339.412ZM689.563 338.528C690.65 336.67 692.21 335.133 694.085 334.074C696.14 332.965 698.45 332.413 700.785 332.474V340.498H698.813C695.776 340.498 693.476 341.269 691.913 342.81C690.35 344.351 689.568 347.026 689.567 350.834V370.556H681.815V333.088H689.567L689.563 338.528ZM711.863 328.128C711.207 328.144 710.555 328.026 709.947 327.78C709.339 327.535 708.788 327.167 708.327 326.7C707.86 326.239 707.492 325.688 707.247 325.08C707.001 324.472 706.883 323.82 706.899 323.164C706.883 322.508 707.001 321.856 707.247 321.248C707.492 320.64 707.86 320.089 708.327 319.628C708.788 319.161 709.339 318.793 709.947 318.548C710.555 318.302 711.207 318.184 711.863 318.2C712.508 318.189 713.148 318.309 713.745 318.555C714.341 318.801 714.881 319.166 715.331 319.628C715.798 320.089 716.166 320.64 716.411 321.248C716.657 321.856 716.775 322.508 716.759 323.164C716.776 323.818 716.659 324.469 716.416 325.076C716.172 325.684 715.807 326.235 715.343 326.696C714.893 327.159 714.352 327.524 713.755 327.77C713.158 328.016 712.517 328.136 711.871 328.124L711.863 328.128ZM715.671 333.092V370.556H707.919V333.088L715.671 333.092ZM733.623 338.668C735.04 336.769 736.894 335.241 739.029 334.214C741.405 333.038 744.028 332.444 746.679 332.48C749.832 332.438 752.937 333.262 755.655 334.86C758.357 336.476 760.549 338.821 761.979 341.626C763.562 344.728 764.357 348.173 764.291 351.656C764.351 355.16 763.558 358.627 761.979 361.756C760.542 364.612 758.341 367.013 755.621 368.692C752.935 370.341 749.838 371.199 746.687 371.168C744.016 371.22 741.371 370.637 738.969 369.468C736.873 368.456 735.044 366.965 733.631 365.116V370.556H725.879V320.236H733.631L733.623 338.668ZM756.411 351.656C756.472 349.321 755.92 347.011 754.811 344.956C753.833 343.163 752.372 341.679 750.595 340.672C748.883 339.706 746.95 339.202 744.985 339.21C743.037 339.211 741.125 339.728 739.443 340.71C737.662 341.743 736.203 343.25 735.227 345.062C734.121 347.13 733.569 349.449 733.627 351.794C733.572 354.149 734.123 356.479 735.227 358.56C736.197 360.384 737.657 361.901 739.443 362.94C741.125 363.922 743.037 364.439 744.985 364.44C746.959 364.446 748.897 363.917 750.595 362.91C752.386 361.844 753.846 360.302 754.813 358.456C755.913 356.361 756.463 354.021 756.411 351.656ZM805.911 333.092V370.556H798.163V366.136C796.884 367.72 795.238 368.968 793.369 369.774C791.391 370.659 789.246 371.111 787.079 371.1C784.328 371.146 781.607 370.515 779.157 369.264C776.821 368.039 774.903 366.145 773.649 363.824C772.246 361.144 771.555 358.148 771.643 355.124V333.088H779.327V353.964C779.327 357.319 780.166 359.891 781.843 361.682C782.731 362.592 783.803 363.302 784.988 363.765C786.172 364.228 787.441 364.434 788.711 364.368C789.985 364.431 791.259 364.224 792.448 363.762C793.637 363.299 794.715 362.59 795.611 361.682C797.311 359.891 798.161 357.319 798.161 353.964V333.088L805.911 333.092ZM825.155 339.416V360.156C825.102 360.701 825.163 361.251 825.332 361.772C825.502 362.292 825.777 362.773 826.141 363.182C827.112 363.891 828.31 364.217 829.507 364.1H834.267V370.556H828.147C824.656 370.556 821.982 369.74 820.123 368.108C818.264 366.476 817.338 363.825 817.343 360.156V339.416H812.923V333.092H817.343V323.776H825.163V333.092H834.275V339.416H825.155ZM845.355 328.128C844.699 328.144 844.047 328.026 843.439 327.78C842.831 327.535 842.28 327.167 841.819 326.7C841.352 326.239 840.984 325.688 840.739 325.08C840.493 324.472 840.375 323.82 840.391 323.164C840.375 322.508 840.493 321.856 840.739 321.248C840.984 320.64 841.352 320.089 841.819 319.628C842.28 319.161 842.831 318.793 843.439 318.548C844.047 318.302 844.699 318.184 845.355 318.2C846 318.188 846.64 318.309 847.237 318.555C847.833 318.8 848.373 319.166 848.823 319.628C849.29 320.089 849.658 320.64 849.903 321.248C850.149 321.856 850.267 322.508 850.251 323.164C850.267 323.82 850.149 324.472 849.903 325.08C849.658 325.688 849.29 326.239 848.823 326.7C848.373 327.162 847.833 327.526 847.236 327.771C846.64 328.016 846 328.136 845.355 328.124V328.128ZM849.163 333.092V370.556H841.411V333.088L849.163 333.092ZM875.615 371.168C872.263 371.215 868.957 370.384 866.027 368.756C863.19 367.166 860.857 364.809 859.295 361.956C857.613 358.835 856.768 355.332 856.843 351.788C856.777 348.248 857.646 344.753 859.363 341.656C860.963 338.786 863.345 336.428 866.231 334.856C869.217 333.248 872.564 332.429 875.955 332.476C879.346 332.429 882.693 333.248 885.679 334.856C888.565 336.428 890.947 338.786 892.547 341.656C894.263 344.753 895.13 348.248 895.063 351.788C895.13 355.336 894.237 358.837 892.479 361.92C890.816 364.81 888.379 367.177 885.443 368.756C882.423 370.377 879.042 371.207 875.615 371.168ZM875.615 364.436C877.576 364.445 879.507 363.953 881.225 363.008C883.017 362.009 884.491 360.524 885.475 358.724C886.618 356.595 887.181 354.203 887.107 351.788C887.182 349.392 886.644 347.017 885.543 344.888C884.595 343.104 883.156 341.629 881.395 340.638C879.69 339.691 877.769 339.199 875.819 339.21C873.879 339.196 871.969 339.688 870.277 340.638C868.541 341.627 867.134 343.105 866.231 344.888C865.173 347.03 864.658 349.4 864.731 351.788C864.731 355.823 865.762 358.939 867.825 361.138C868.813 362.212 870.019 363.062 871.363 363.63C872.707 364.199 874.156 364.474 875.615 364.436ZM921.651 332.476C924.402 332.43 927.122 333.06 929.573 334.312C931.903 335.534 933.81 337.432 935.043 339.756C936.424 342.443 937.102 345.436 937.015 348.456V370.556H929.331V349.612C929.331 346.257 928.492 343.685 926.815 341.894C925.927 340.984 924.855 340.274 923.67 339.811C922.486 339.348 921.217 339.142 919.947 339.208C918.673 339.145 917.399 339.352 916.21 339.814C915.021 340.277 913.943 340.986 913.047 341.894C911.347 343.685 910.497 346.257 910.497 349.612V370.556H902.743V333.088H910.495V337.372C911.806 335.802 913.473 334.567 915.357 333.772C917.342 332.906 919.486 332.465 921.651 332.476Z" fill="#2E555A"/>
</g>
<defs>
<clipPath id="clip0_4_2">
<rect width="937.02" height="371.168" fill="white"/>
</clipPath>
</defs>
</svg>
