<svg width="16" height="16" viewBox="0 0 16 16" fill="none" xmlns="http://www.w3.org/2000/svg">
<path fill-rule="evenodd" clip-rule="evenodd" d="M8.00019 0.833252C7.54908 0.833252 7.22501 1.15578 7.0534 1.35045C6.95403 1.46317 6.86533 1.58167 6.79425 1.67792L6.76728 1.71446C6.70456 1.79951 6.66285 1.85605 6.62762 1.89687C6.52958 2.01046 6.46932 2.06495 6.41557 2.0971C6.37296 2.12257 6.31366 2.14652 6.19896 2.14811C6.08176 2.14973 5.95497 2.11239 5.72401 2.04437L5.69792 2.03669C5.49028 1.97559 5.1738 1.88305 4.83845 1.93352C4.69272 1.95544 4.5015 2.00785 4.35336 2.15697C4.17791 2.33357 4.14959 2.55331 4.17525 2.71939C4.19741 2.8629 4.26001 2.98237 4.30095 3.05313C4.33988 3.12039 4.38531 3.18623 4.41549 3.22997L4.42582 3.24496L5.04771 4.15015L5.08567 4.20554C5.16887 4.32713 5.25015 4.44592 5.34008 4.5559C5.09987 4.70597 4.91917 4.88172 4.69118 5.10347L4.67335 5.12081C3.42934 6.33044 2.00334 8.38301 1.54483 11.1416C1.35099 12.3078 1.79898 13.3313 2.56888 14.046C3.33108 14.7536 4.41172 15.1666 5.53877 15.1666H10.461C11.5881 15.1666 12.6687 14.7536 13.4309 14.046C14.2008 13.3313 14.6488 12.3078 14.4549 11.1416C13.9964 8.38301 12.5704 6.33044 11.3264 5.12081L11.3086 5.10347C11.0807 4.88184 10.9001 4.70617 10.6601 4.55614C10.7501 4.44609 10.8314 4.32722 10.9147 4.20554L10.9527 4.15014L11.5745 3.24496L11.5849 3.22997C11.6151 3.18622 11.6605 3.12039 11.6994 3.05313C11.7404 2.98237 11.803 2.8629 11.8251 2.71939C11.8508 2.55331 11.8225 2.33357 11.647 2.15697C11.4989 2.00785 11.3077 1.95544 11.1619 1.93352C10.8266 1.88305 10.5101 1.97559 10.3025 2.03669L10.2764 2.04437C10.0454 2.11239 9.91861 2.14973 9.80141 2.14811C9.68671 2.14652 9.62741 2.12257 9.5848 2.0971C9.53105 2.06495 9.47079 2.01046 9.37275 1.89687C9.33752 1.85605 9.29582 1.79951 9.23309 1.71446L9.20612 1.67792C9.13504 1.58167 9.04635 1.46317 8.94697 1.35045C8.77536 1.15578 8.45129 0.833252 8.00019 0.833252ZM7.38463 2.55027C7.44724 2.47774 7.51514 2.38546 7.57329 2.30643L7.59864 2.27202C7.66882 2.177 7.7353 2.08914 7.80354 2.01173C7.91656 1.88351 7.98059 1.84727 8.00019 1.83712C8.01978 1.84727 8.08381 1.88351 8.19683 2.01173C8.26508 2.08914 8.33155 2.177 8.40173 2.27202L8.42709 2.30644C8.48524 2.38547 8.55314 2.47774 8.61574 2.55027C8.73044 2.68316 8.87569 2.83821 9.07157 2.95535C9.2786 3.07915 9.51305 3.14421 9.78757 3.14801C10.062 3.15181 10.3319 3.07188 10.5188 3.01573L10.1284 3.58388C9.8413 4.00183 9.79033 4.04861 9.68029 4.09185C9.61045 4.11929 9.50967 4.14172 9.31802 4.15392C9.12296 4.16635 8.87179 4.16659 8.50565 4.16659H7.49472C7.12858 4.16659 6.87742 4.16635 6.68235 4.15392C6.49071 4.14172 6.38992 4.11929 6.32008 4.09185C6.21004 4.04861 6.15907 4.00183 5.87193 3.58388L5.4816 3.01573C5.66847 3.07188 5.9384 3.15181 6.21281 3.14801C6.48733 3.14421 6.72177 3.07915 6.9288 2.95535C7.12468 2.83821 7.26994 2.68316 7.38463 2.55027ZM6.10801 5.28471C6.38136 5.17335 6.60468 5.16661 7.28137 5.16661H8.71841C9.3951 5.16661 9.61842 5.17335 9.89177 5.28471C10.1737 5.39955 10.2853 5.50329 10.6293 5.83775C11.7536 6.93097 13.0519 8.799 13.4685 11.3055C13.6002 12.098 13.3075 12.796 12.7505 13.3132C12.1858 13.8374 11.3533 14.1666 10.461 14.1666H5.53877C4.64646 14.1666 3.81396 13.8374 3.24926 13.3132C2.69226 12.796 2.39959 12.098 2.5313 11.3055C2.94791 8.799 4.24619 6.93097 5.37048 5.83775C5.71445 5.50329 5.82611 5.39955 6.10801 5.28471Z" fill="#03578A"/>
</svg>
