<svg width="40" height="40" viewBox="0 0 40 40" fill="none" xmlns="http://www.w3.org/2000/svg">
<rect width="40" height="40" rx="8" fill="white"/>
<path d="M10.75 20C10.75 14.8914 14.8914 10.75 20 10.75C20.3127 10.75 20.6216 10.7655 20.9259 10.7957C21.3381 10.8366 21.7054 10.5357 21.7463 10.1235C21.7873 9.71129 21.4863 9.34397 21.0741 9.30305C20.7206 9.26795 20.3623 9.25 20 9.25C14.0629 9.25 9.25 14.0629 9.25 20C9.25 25.9371 14.0629 30.75 20 30.75C25.9371 30.75 30.75 25.9371 30.75 20C30.75 19.2647 30.6761 18.5459 30.535 17.8508C30.4526 17.4449 30.0567 17.1826 29.6508 17.265C29.2448 17.3474 28.9826 17.7433 29.065 18.1492C29.1862 18.7466 29.25 19.3655 29.25 20C29.25 25.1086 25.1086 29.25 20 29.25C14.8914 29.25 10.75 25.1086 10.75 20Z" fill="#1F1F1E"/>
<path d="M16.0303 17.9697C15.7374 17.6768 15.2626 17.6768 14.9697 17.9697C14.6768 18.2626 14.6768 18.7374 14.9697 19.0303C15.4305 19.4911 16.0554 19.75 16.7071 19.75H18C18.4142 19.75 18.75 19.4142 18.75 19C18.75 18.5858 18.4142 18.25 18 18.25H16.7071C16.4533 18.25 16.2098 18.1492 16.0303 17.9697Z" fill="#1F1F1E"/>
<path d="M25.0303 19.0303C25.3232 18.7374 25.3232 18.2626 25.0303 17.9697C24.7374 17.6768 24.2626 17.6768 23.9697 17.9697C23.7902 18.1492 23.5467 18.25 23.2929 18.25H22C21.5858 18.25 21.25 18.5858 21.25 19C21.25 19.4142 21.5858 19.75 22 19.75H23.2929C23.9446 19.75 24.5695 19.4911 25.0303 19.0303Z" fill="#1F1F1E"/>
<path fill-rule="evenodd" clip-rule="evenodd" d="M17.25 24C17.25 22.4812 18.4812 21.25 20 21.25C21.5188 21.25 22.75 22.4812 22.75 24C22.75 25.5188 21.5188 26.75 20 26.75C18.4812 26.75 17.25 25.5188 17.25 24ZM20 22.75C19.3096 22.75 18.75 23.3096 18.75 24C18.75 24.6904 19.3096 25.25 20 25.25C20.6904 25.25 21.25 24.6904 21.25 24C21.25 23.3096 20.6904 22.75 20 22.75Z" fill="#1F1F1E"/>
<path d="M25 10.75H27.7367L25.3924 13.4174C25.2069 13.6284 25.018 13.8432 24.8932 14.0334C24.771 14.2195 24.5486 14.6199 24.741 15.0861C24.9412 15.571 25.4012 15.6824 25.6269 15.7166C25.8495 15.7503 26.132 15.7501 26.402 15.75L29 15.75C29.4142 15.75 29.75 15.4142 29.75 15C29.75 14.5858 29.4142 14.25 29 14.25H26.6576L29.002 11.5826C29.1875 11.3716 29.3764 11.1569 29.5012 10.9667C29.6233 10.7805 29.8457 10.3801 29.6534 9.91398C29.4532 9.42906 28.9931 9.31761 28.7675 9.28347C28.5449 9.2498 28.2624 9.24991 27.9924 9.25001L25 9.25002C24.5858 9.25002 24.25 9.58581 24.25 10C24.25 10.4142 24.5858 10.75 25 10.75Z" fill="#1F1F1E"/>
</svg>
