<svg width="32" height="32" viewBox="0 0 32 32" fill="none" xmlns="http://www.w3.org/2000/svg">
<path fill-rule="evenodd" clip-rule="evenodd" d="M16.9997 10.6665C16.9997 10.1142 16.552 9.6665 15.9997 9.6665C15.4474 9.6665 14.9997 10.1142 14.9997 10.6665V19.1379C13.4607 19.5731 12.333 20.9881 12.333 22.6665C12.333 24.6915 13.9746 26.3332 15.9997 26.3332C18.0247 26.3332 19.6663 24.6915 19.6663 22.6665C19.6663 20.9881 18.5387 19.5731 16.9997 19.1379V10.6665ZM14.333 22.6665C14.333 21.746 15.0792 20.9998 15.9997 20.9998C16.9201 20.9998 17.6663 21.746 17.6663 22.6665C17.6663 23.587 16.9201 24.3332 15.9997 24.3332C15.0792 24.3332 14.333 23.587 14.333 22.6665Z" fill="#035587"/>
<path fill-rule="evenodd" clip-rule="evenodd" d="M16.0334 1.6665H15.966C15.3731 1.66649 14.8781 1.66649 14.4718 1.69422C14.0488 1.7231 13.6492 1.78535 13.2619 1.94588C12.364 2.31801 11.6505 3.03143 11.2784 3.92935C11.1179 4.3167 11.0556 4.71625 11.0267 5.13926C10.999 5.5456 10.999 6.04056 10.999 6.63346L10.999 16.8551C9.36808 18.2598 8.33301 20.3424 8.33301 22.6665C8.33301 26.9007 11.7655 30.3332 15.9997 30.3332C20.2339 30.3332 23.6663 26.9007 23.6663 22.6665C23.6663 20.3424 22.6313 18.2598 21.0003 16.8551V6.63349C21.0003 6.04058 21.0003 5.54561 20.9726 5.13926C20.9437 4.71625 20.8815 4.3167 20.7209 3.92935C20.3488 3.03143 19.6354 2.31801 18.7375 1.94588C18.3501 1.78535 17.9506 1.7231 17.5276 1.69422C17.1212 1.66649 16.6263 1.66649 16.0334 1.6665ZM14.0276 3.79349C14.1305 3.75084 14.2869 3.7115 14.608 3.68958C14.9381 3.66705 15.3644 3.6665 15.9997 3.6665C16.6349 3.6665 17.0613 3.66705 17.3914 3.68958C17.7125 3.7115 17.8688 3.75084 17.9718 3.79349C18.3799 3.96264 18.7042 4.28693 18.8733 4.69507C18.916 4.79799 18.9553 4.95434 18.9772 5.27546C18.9998 5.60557 19.0003 6.03191 19.0003 6.66716V17.3332C19.0003 17.6476 19.1482 17.9438 19.3996 18.1327C20.778 19.1682 21.6663 20.8135 21.6663 22.6665C21.6663 25.7961 19.1293 28.3332 15.9997 28.3332C12.8701 28.3332 10.333 25.7961 10.333 22.6665C10.333 20.8135 11.2214 19.1682 12.5997 18.1327C12.8511 17.9438 12.999 17.6476 12.999 17.3332V6.66716C12.999 6.03191 12.9996 5.60557 13.0221 5.27546C13.044 4.95434 13.0834 4.79799 13.126 4.69507C13.2952 4.28693 13.6194 3.96264 14.0276 3.79349Z" fill="#035587"/>
</svg>
